<svg width="205" height="141" viewBox="0 0 205 141" fill="none" xmlns="http://www.w3.org/2000/svg">
<g clip-path="url(#clip0_1347_611)">
<path d="M117.122 20.4057L117.808 18.8602C118.351 17.6348 117.796 16.2014 116.568 15.6586C115.339 15.1158 113.903 15.6694 113.36 16.8952L112.448 18.9499C112.862 18.8218 113.29 18.7532 113.724 18.7532C115.065 18.7536 116.315 19.3848 117.122 20.4057Z" fill="black"/>
<path d="M116.597 26.2893C116.207 26.6358 115.756 26.9145 115.253 27.1044C112.918 27.9854 110.47 28.6555 107.932 29.1288L105.92 33.6636C105.376 34.8894 105.931 36.3228 107.16 36.8652C108.388 37.408 109.824 36.8544 110.368 35.629L113.322 28.9709L136.469 39.1964L138 35.7442L116.597 26.2893Z" fill="black"/>
<path d="M79.1734 16.2493L71.3483 11.1251C70.3508 10.4715 69.0099 10.7493 68.3544 11.7456C67.6997 12.7423 67.9778 14.0794 68.9762 14.7331L76.0502 19.3659C76.9198 18.0516 77.9986 17.0096 79.1734 16.2493Z" fill="black"/>
<path d="M86.9542 54.8365H106.892L118.684 70.6293C119.745 72.0501 121.373 72.8 123.021 72.8C124.145 72.8005 125.277 72.4523 126.247 71.7313C128.641 69.9519 129.135 66.5734 127.352 64.1844L113.94 46.2212C112.915 44.8483 111.322 44.0496 109.606 44.0496H92.3998C91.9203 42.2966 91.5748 40.4684 91.3175 38.629L80.9062 53.2758C82.7746 54.7791 84.9068 55.0449 86.9542 54.8365Z" fill="black"/>
<path d="M82.3606 27.4443L82.3066 27.4262C80.0577 26.6353 78.8721 24.1669 79.6651 21.9228C80.2739 20.1986 81.9131 19.0396 83.7435 19.0396C84.2325 19.0396 84.7163 19.1229 85.1807 19.2865L85.2231 19.3007L85.3598 19.3447C85.5245 19.3986 85.7684 19.4746 86.0901 19.5673C86.6963 19.7417 87.6861 20.0061 88.9638 20.2758C89.2094 20.3276 89.4732 20.3807 89.7486 20.4337C88.7173 17.7245 86.6427 15.6435 84.1002 15.6103C80.2964 15.5602 75.5478 18.7311 74.8797 25.3793C74.0149 34.5248 74.7007 40.1845 77.99 49.2592C78.0518 49.3951 78.1141 49.5272 78.1776 49.657L90.7133 32.021C90.6644 31.1062 90.6255 30.2083 90.5944 29.3355C86.4386 28.7215 83.4788 27.8188 82.3706 27.4478L82.3606 27.4443Z" fill="black"/>
<path d="M105.725 11.9097C106.943 6.68956 103.69 1.47227 98.4578 0.256509C93.2261 -0.959248 87.9973 2.28692 86.7791 7.50703C85.5608 12.7271 88.8144 17.9444 94.0462 19.1602C99.2779 20.3759 104.507 17.1298 105.725 11.9097Z" fill="black"/>
<path d="M80.3896 50.3012C79.424 49.6061 78.0771 49.8231 77.3766 50.7832C77.3749 50.7853 77.3723 50.7875 77.3706 50.7896L71.2936 59.2021C70.5962 60.1682 70.815 61.5165 71.7831 62.2134C72.1658 62.4886 72.6081 62.6211 73.0461 62.6211C73.7177 62.6211 74.3792 62.31 74.8017 61.7249L80.4094 53.9636L80.879 53.3138C81.5765 52.3464 81.3577 50.998 80.3896 50.3012Z" fill="black"/>
<path d="M114.947 26.2975C116.734 25.6222 117.634 23.6293 116.957 21.8473C116.281 20.064 114.283 19.1665 112.497 19.8409C107.862 21.594 103.121 22.1881 98.8819 22.1873C94.8619 22.1881 91.3054 21.654 88.7837 21.1211C87.5237 20.8549 86.5214 20.5904 85.8499 20.3967C85.5139 20.3 85.2605 20.2215 85.0975 20.1688C85.0162 20.1425 84.9574 20.1235 84.9228 20.1123C84.8925 20.1011 84.8925 20.1011 84.8925 20.1011C83.0903 19.4677 81.1142 20.4118 80.4799 22.2101C79.8447 24.0077 80.7908 25.9791 82.593 26.6125C82.8235 26.6862 89.6256 29.0827 98.8823 29.0908C103.759 29.0896 109.334 28.4156 114.947 26.2975Z" fill="black"/>
</g>
<path d="M13.5748 131.12C12.5215 131.12 11.5482 130.947 10.6548 130.6C9.76151 130.24 8.98818 129.74 8.33484 129.1C7.68151 128.46 7.16818 127.707 6.79484 126.84C6.43484 125.973 6.25484 125.027 6.25484 124C6.25484 122.973 6.43484 122.027 6.79484 121.16C7.16818 120.293 7.68151 119.54 8.33484 118.9C9.00151 118.26 9.78151 117.767 10.6748 117.42C11.5682 117.06 12.5415 116.88 13.5948 116.88C14.6082 116.88 15.5615 117.053 16.4548 117.4C17.3482 117.733 18.1015 118.24 18.7148 118.92L17.7748 119.86C17.2015 119.273 16.5682 118.853 15.8748 118.6C15.1815 118.333 14.4348 118.2 13.6348 118.2C12.7948 118.2 12.0148 118.347 11.2948 118.64C10.5748 118.92 9.94818 119.327 9.41484 119.86C8.88151 120.38 8.46151 120.993 8.15484 121.7C7.86151 122.393 7.71484 123.16 7.71484 124C7.71484 124.84 7.86151 125.613 8.15484 126.32C8.46151 127.013 8.88151 127.627 9.41484 128.16C9.94818 128.68 10.5748 129.087 11.2948 129.38C12.0148 129.66 12.7948 129.8 13.6348 129.8C14.4348 129.8 15.1815 129.667 15.8748 129.4C16.5682 129.133 17.2015 128.707 17.7748 128.12L18.7148 129.06C18.1015 129.74 17.3482 130.253 16.4548 130.6C15.5615 130.947 14.6015 131.12 13.5748 131.12ZM25.3811 131.1C24.3678 131.1 23.4544 130.873 22.6411 130.42C21.8411 129.953 21.2078 129.32 20.7411 128.52C20.2744 127.707 20.0411 126.78 20.0411 125.74C20.0411 124.687 20.2744 123.76 20.7411 122.96C21.2078 122.16 21.8411 121.533 22.6411 121.08C23.4411 120.627 24.3544 120.4 25.3811 120.4C26.4211 120.4 27.3411 120.627 28.1411 121.08C28.9544 121.533 29.5878 122.16 30.0411 122.96C30.5078 123.76 30.7411 124.687 30.7411 125.74C30.7411 126.78 30.5078 127.707 30.0411 128.52C29.5878 129.32 28.9544 129.953 28.1411 130.42C27.3278 130.873 26.4078 131.1 25.3811 131.1ZM25.3811 129.84C26.1411 129.84 26.8144 129.673 27.4011 129.34C27.9878 128.993 28.4478 128.513 28.7811 127.9C29.1278 127.273 29.3011 126.553 29.3011 125.74C29.3011 124.913 29.1278 124.193 28.7811 123.58C28.4478 122.967 27.9878 122.493 27.4011 122.16C26.8144 121.813 26.1478 121.64 25.4011 121.64C24.6544 121.64 23.9878 121.813 23.4011 122.16C22.8144 122.493 22.3478 122.967 22.0011 123.58C21.6544 124.193 21.4811 124.913 21.4811 125.74C21.4811 126.553 21.6544 127.273 22.0011 127.9C22.3478 128.513 22.8144 128.993 23.4011 129.34C23.9878 129.673 24.6478 129.84 25.3811 129.84ZM39.0002 120.4C39.8535 120.4 40.6002 120.567 41.2402 120.9C41.8935 121.22 42.4002 121.713 42.7602 122.38C43.1335 123.047 43.3202 123.887 43.3202 124.9V131H41.9002V125.04C41.9002 123.933 41.6202 123.1 41.0602 122.54C40.5135 121.967 39.7402 121.68 38.7402 121.68C37.9935 121.68 37.3402 121.833 36.7802 122.14C36.2335 122.433 35.8068 122.867 35.5002 123.44C35.2068 124 35.0602 124.68 35.0602 125.48V131H33.6402V120.5H35.0002V123.38L34.7802 122.84C35.1135 122.08 35.6468 121.487 36.3802 121.06C37.1135 120.62 37.9868 120.4 39.0002 120.4ZM50.4758 131.1C49.4891 131.1 48.7291 130.833 48.1958 130.3C47.6624 129.767 47.3958 129.013 47.3958 128.04V118.18H48.8158V127.96C48.8158 128.573 48.9691 129.047 49.2758 129.38C49.5958 129.713 50.0491 129.88 50.6358 129.88C51.2624 129.88 51.7824 129.7 52.1958 129.34L52.6958 130.36C52.4158 130.613 52.0758 130.8 51.6758 130.92C51.2891 131.04 50.8891 131.1 50.4758 131.1ZM45.5158 121.68V120.5H52.0158V121.68H45.5158ZM55.2808 131V120.5H56.7008V131H55.2808ZM56.0008 118.18C55.7074 118.18 55.4608 118.08 55.2608 117.88C55.0608 117.68 54.9608 117.44 54.9608 117.16C54.9608 116.88 55.0608 116.647 55.2608 116.46C55.4608 116.26 55.7074 116.16 56.0008 116.16C56.2941 116.16 56.5408 116.253 56.7408 116.44C56.9408 116.627 57.0408 116.86 57.0408 117.14C57.0408 117.433 56.9408 117.68 56.7408 117.88C56.5541 118.08 56.3074 118.18 56.0008 118.18ZM66.0119 120.4C66.8652 120.4 67.6119 120.567 68.2519 120.9C68.9052 121.22 69.4119 121.713 69.7719 122.38C70.1452 123.047 70.3319 123.887 70.3319 124.9V131H68.9119V125.04C68.9119 123.933 68.6319 123.1 68.0719 122.54C67.5252 121.967 66.7519 121.68 65.7519 121.68C65.0052 121.68 64.3519 121.833 63.7919 122.14C63.2452 122.433 62.8185 122.867 62.5119 123.44C62.2185 124 62.0719 124.68 62.0719 125.48V131H60.6519V120.5H62.0119V123.38L61.7919 122.84C62.1252 122.08 62.6585 121.487 63.3919 121.06C64.1252 120.62 64.9985 120.4 66.0119 120.4ZM78.5075 131.1C77.6142 131.1 76.8342 130.933 76.1675 130.6C75.5008 130.267 74.9808 129.767 74.6075 129.1C74.2475 128.433 74.0675 127.6 74.0675 126.6V120.5H75.4875V126.44C75.4875 127.56 75.7608 128.407 76.3075 128.98C76.8675 129.54 77.6475 129.82 78.6475 129.82C79.3808 129.82 80.0142 129.673 80.5475 129.38C81.0942 129.073 81.5075 128.633 81.7875 128.06C82.0808 127.487 82.2275 126.8 82.2275 126V120.5H83.6475V131H82.2875V128.12L82.5075 128.64C82.1742 129.413 81.6542 130.02 80.9475 130.46C80.2542 130.887 79.4408 131.1 78.5075 131.1ZM91.885 131.1C90.8717 131.1 89.9583 130.873 89.145 130.42C88.345 129.953 87.7117 129.32 87.245 128.52C86.7783 127.707 86.545 126.78 86.545 125.74C86.545 124.687 86.7783 123.76 87.245 122.96C87.7117 122.16 88.345 121.533 89.145 121.08C89.945 120.627 90.8583 120.4 91.885 120.4C92.925 120.4 93.845 120.627 94.645 121.08C95.4583 121.533 96.0917 122.16 96.545 122.96C97.0117 123.76 97.245 124.687 97.245 125.74C97.245 126.78 97.0117 127.707 96.545 128.52C96.0917 129.32 95.4583 129.953 94.645 130.42C93.8317 130.873 92.9117 131.1 91.885 131.1ZM91.885 129.84C92.645 129.84 93.3183 129.673 93.905 129.34C94.4917 128.993 94.9517 128.513 95.285 127.9C95.6317 127.273 95.805 126.553 95.805 125.74C95.805 124.913 95.6317 124.193 95.285 123.58C94.9517 122.967 94.4917 122.493 93.905 122.16C93.3183 121.813 92.6517 121.64 91.905 121.64C91.1583 121.64 90.4917 121.813 89.905 122.16C89.3183 122.493 88.8517 122.967 88.505 123.58C88.1583 124.193 87.985 124.913 87.985 125.74C87.985 126.553 88.1583 127.273 88.505 127.9C88.8517 128.513 89.3183 128.993 89.905 129.34C90.4917 129.673 91.1517 129.84 91.885 129.84ZM104.484 131.1C103.591 131.1 102.811 130.933 102.144 130.6C101.477 130.267 100.957 129.767 100.584 129.1C100.224 128.433 100.044 127.6 100.044 126.6V120.5H101.464V126.44C101.464 127.56 101.737 128.407 102.284 128.98C102.844 129.54 103.624 129.82 104.624 129.82C105.357 129.82 105.991 129.673 106.524 129.38C107.071 129.073 107.484 128.633 107.764 128.06C108.057 127.487 108.204 126.8 108.204 126V120.5H109.624V131H108.264V128.12L108.484 128.64C108.151 129.413 107.631 130.02 106.924 130.46C106.231 130.887 105.417 131.1 104.484 131.1ZM116.402 131.1C115.535 131.1 114.715 130.98 113.942 130.74C113.168 130.487 112.562 130.173 112.122 129.8L112.762 128.68C113.188 129 113.735 129.28 114.402 129.52C115.068 129.747 115.768 129.86 116.502 129.86C117.502 129.86 118.222 129.707 118.662 129.4C119.102 129.08 119.322 128.66 119.322 128.14C119.322 127.753 119.195 127.453 118.942 127.24C118.702 127.013 118.382 126.847 117.982 126.74C117.582 126.62 117.135 126.52 116.642 126.44C116.148 126.36 115.655 126.267 115.162 126.16C114.682 126.053 114.242 125.9 113.842 125.7C113.442 125.487 113.115 125.2 112.862 124.84C112.622 124.48 112.502 124 112.502 123.4C112.502 122.827 112.662 122.313 112.982 121.86C113.302 121.407 113.768 121.053 114.382 120.8C115.008 120.533 115.768 120.4 116.662 120.4C117.342 120.4 118.022 120.493 118.702 120.68C119.382 120.853 119.942 121.087 120.382 121.38L119.762 122.52C119.295 122.2 118.795 121.973 118.262 121.84C117.728 121.693 117.195 121.62 116.662 121.62C115.715 121.62 115.015 121.787 114.562 122.12C114.122 122.44 113.902 122.853 113.902 123.36C113.902 123.76 114.022 124.073 114.262 124.3C114.515 124.527 114.842 124.707 115.242 124.84C115.655 124.96 116.102 125.06 116.582 125.14C117.075 125.22 117.562 125.32 118.042 125.44C118.535 125.547 118.982 125.7 119.382 125.9C119.795 126.087 120.122 126.36 120.362 126.72C120.615 127.067 120.742 127.527 120.742 128.1C120.742 128.713 120.568 129.247 120.222 129.7C119.888 130.14 119.395 130.487 118.742 130.74C118.102 130.98 117.322 131.1 116.402 131.1ZM128.882 131V117H134.582C136.075 117 137.382 117.3 138.502 117.9C139.635 118.487 140.515 119.307 141.142 120.36C141.768 121.413 142.082 122.627 142.082 124C142.082 125.373 141.768 126.587 141.142 127.64C140.515 128.693 139.635 129.52 138.502 130.12C137.382 130.707 136.075 131 134.582 131H128.882ZM130.362 129.72H134.502C135.742 129.72 136.815 129.48 137.722 129C138.642 128.507 139.355 127.833 139.862 126.98C140.368 126.113 140.622 125.12 140.622 124C140.622 122.867 140.368 121.873 139.862 121.02C139.355 120.167 138.642 119.5 137.722 119.02C136.815 118.527 135.742 118.28 134.502 118.28H130.362V129.72ZM145.105 131V120.5H146.465V123.36L146.325 122.86C146.618 122.06 147.112 121.453 147.805 121.04C148.498 120.613 149.358 120.4 150.385 120.4V121.78C150.332 121.78 150.278 121.78 150.225 121.78C150.172 121.767 150.118 121.76 150.065 121.76C148.958 121.76 148.092 122.1 147.465 122.78C146.838 123.447 146.525 124.4 146.525 125.64V131H145.105ZM152.976 131V120.5H154.396V131H152.976ZM153.696 118.18C153.403 118.18 153.156 118.08 152.956 117.88C152.756 117.68 152.656 117.44 152.656 117.16C152.656 116.88 152.756 116.647 152.956 116.46C153.156 116.26 153.403 116.16 153.696 116.16C153.989 116.16 154.236 116.253 154.436 116.44C154.636 116.627 154.736 116.86 154.736 117.14C154.736 117.433 154.636 117.68 154.436 117.88C154.249 118.08 154.003 118.18 153.696 118.18ZM161.047 131L156.387 120.5H157.867L162.147 130.24H161.447L165.787 120.5H167.187L162.507 131H161.047ZM169.187 131V120.5H170.607V131H169.187ZM169.907 118.18C169.614 118.18 169.367 118.08 169.167 117.88C168.967 117.68 168.867 117.44 168.867 117.16C168.867 116.88 168.967 116.647 169.167 116.46C169.367 116.26 169.614 116.16 169.907 116.16C170.2 116.16 170.447 116.253 170.647 116.44C170.847 116.627 170.947 116.86 170.947 117.14C170.947 117.433 170.847 117.68 170.647 117.88C170.46 118.08 170.214 118.18 169.907 118.18ZM179.918 120.4C180.771 120.4 181.518 120.567 182.158 120.9C182.811 121.22 183.318 121.713 183.678 122.38C184.051 123.047 184.238 123.887 184.238 124.9V131H182.818V125.04C182.818 123.933 182.538 123.1 181.978 122.54C181.431 121.967 180.658 121.68 179.658 121.68C178.911 121.68 178.258 121.833 177.698 122.14C177.151 122.433 176.725 122.867 176.418 123.44C176.125 124 175.978 124.68 175.978 125.48V131H174.558V120.5H175.918V123.38L175.698 122.84C176.031 122.08 176.565 121.487 177.298 121.06C178.031 120.62 178.905 120.4 179.918 120.4ZM192.554 134.98C191.594 134.98 190.674 134.84 189.794 134.56C188.914 134.28 188.2 133.88 187.654 133.36L188.374 132.28C188.867 132.72 189.474 133.067 190.194 133.32C190.927 133.587 191.7 133.72 192.514 133.72C193.847 133.72 194.827 133.407 195.454 132.78C196.08 132.167 196.394 131.207 196.394 129.9V127.28L196.594 125.48L196.454 123.68V120.5H197.814V129.72C197.814 131.533 197.367 132.86 196.474 133.7C195.594 134.553 194.287 134.98 192.554 134.98ZM192.294 130.6C191.294 130.6 190.394 130.387 189.594 129.96C188.794 129.52 188.16 128.913 187.694 128.14C187.24 127.367 187.014 126.48 187.014 125.48C187.014 124.48 187.24 123.6 187.694 122.84C188.16 122.067 188.794 121.467 189.594 121.04C190.394 120.613 191.294 120.4 192.294 120.4C193.227 120.4 194.067 120.593 194.814 120.98C195.56 121.367 196.154 121.94 196.594 122.7C197.034 123.46 197.254 124.387 197.254 125.48C197.254 126.573 197.034 127.5 196.594 128.26C196.154 129.02 195.56 129.6 194.814 130C194.067 130.4 193.227 130.6 192.294 130.6ZM192.434 129.34C193.207 129.34 193.894 129.18 194.494 128.86C195.094 128.527 195.567 128.073 195.914 127.5C196.26 126.913 196.434 126.24 196.434 125.48C196.434 124.72 196.26 124.053 195.914 123.48C195.567 122.907 195.094 122.46 194.494 122.14C193.894 121.807 193.207 121.64 192.434 121.64C191.674 121.64 190.987 121.807 190.374 122.14C189.774 122.46 189.3 122.907 188.954 123.48C188.62 124.053 188.454 124.72 188.454 125.48C188.454 126.24 188.62 126.913 188.954 127.5C189.3 128.073 189.774 128.527 190.374 128.86C190.987 129.18 191.674 129.34 192.434 129.34Z" fill="#171846"/>
<defs>
<clipPath id="clip0_1347_611">
<rect width="70" height="91" fill="white" transform="translate(68)"/>
</clipPath>
</defs>
</svg>
