<svg width="167" height="133" viewBox="0 0 167 133" fill="none" xmlns="http://www.w3.org/2000/svg">
<path d="M21.1625 115.78H28.5625V117.06H21.1625V115.78ZM21.3225 123H19.8425V109H29.4425V110.28H21.3225V123ZM32.0034 123V112.5H33.3634V115.36L33.2234 114.86C33.5168 114.06 34.0101 113.453 34.7034 113.04C35.3968 112.613 36.2568 112.4 37.2834 112.4V113.78C37.2301 113.78 37.1768 113.78 37.1234 113.78C37.0701 113.767 37.0168 113.76 36.9634 113.76C35.8568 113.76 34.9901 114.1 34.3634 114.78C33.7368 115.447 33.4234 116.4 33.4234 117.64V123H32.0034ZM44.2369 123.1C43.1435 123.1 42.1835 122.873 41.3569 122.42C40.5302 121.953 39.8835 121.32 39.4169 120.52C38.9502 119.707 38.7169 118.78 38.7169 117.74C38.7169 116.7 38.9369 115.78 39.3769 114.98C39.8302 114.18 40.4435 113.553 41.2169 113.1C42.0035 112.633 42.8835 112.4 43.8569 112.4C44.8435 112.4 45.7169 112.627 46.4769 113.08C47.2502 113.52 47.8569 114.147 48.2969 114.96C48.7369 115.76 48.9569 116.687 48.9569 117.74C48.9569 117.807 48.9502 117.88 48.9369 117.96C48.9369 118.027 48.9369 118.1 48.9369 118.18H39.7969V117.12H48.1769L47.6169 117.54C47.6169 116.78 47.4502 116.107 47.1169 115.52C46.7969 114.92 46.3569 114.453 45.7969 114.12C45.2369 113.787 44.5902 113.62 43.8569 113.62C43.1369 113.62 42.4902 113.787 41.9169 114.12C41.3435 114.453 40.8969 114.92 40.5769 115.52C40.2569 116.12 40.0969 116.807 40.0969 117.58V117.8C40.0969 118.6 40.2702 119.307 40.6169 119.92C40.9769 120.52 41.4702 120.993 42.0969 121.34C42.7369 121.673 43.4635 121.84 44.2769 121.84C44.9169 121.84 45.5102 121.727 46.0569 121.5C46.6169 121.273 47.0969 120.927 47.4969 120.46L48.2969 121.38C47.8302 121.94 47.2435 122.367 46.5369 122.66C45.8435 122.953 45.0769 123.1 44.2369 123.1ZM56.3072 123.1C55.2139 123.1 54.2539 122.873 53.4272 122.42C52.6005 121.953 51.9539 121.32 51.4872 120.52C51.0205 119.707 50.7872 118.78 50.7872 117.74C50.7872 116.7 51.0072 115.78 51.4472 114.98C51.9005 114.18 52.5139 113.553 53.2872 113.1C54.0739 112.633 54.9539 112.4 55.9272 112.4C56.9139 112.4 57.7872 112.627 58.5472 113.08C59.3205 113.52 59.9272 114.147 60.3672 114.96C60.8072 115.76 61.0272 116.687 61.0272 117.74C61.0272 117.807 61.0205 117.88 61.0072 117.96C61.0072 118.027 61.0072 118.1 61.0072 118.18H51.8672V117.12H60.2472L59.6872 117.54C59.6872 116.78 59.5205 116.107 59.1872 115.52C58.8672 114.92 58.4272 114.453 57.8672 114.12C57.3072 113.787 56.6605 113.62 55.9272 113.62C55.2072 113.62 54.5605 113.787 53.9872 114.12C53.4139 114.453 52.9672 114.92 52.6472 115.52C52.3272 116.12 52.1672 116.807 52.1672 117.58V117.8C52.1672 118.6 52.3405 119.307 52.6872 119.92C53.0472 120.52 53.5405 120.993 54.1672 121.34C54.8072 121.673 55.5339 121.84 56.3472 121.84C56.9872 121.84 57.5805 121.727 58.1272 121.5C58.6872 121.273 59.1672 120.927 59.5672 120.46L60.3672 121.38C59.9005 121.94 59.3139 122.367 58.6072 122.66C57.9139 122.953 57.1472 123.1 56.3072 123.1ZM64.2175 123V109H69.4575C70.6442 109 71.6642 109.193 72.5175 109.58C73.3708 109.953 74.0242 110.5 74.4775 111.22C74.9442 111.927 75.1775 112.787 75.1775 113.8C75.1775 114.787 74.9442 115.64 74.4775 116.36C74.0242 117.067 73.3708 117.613 72.5175 118C71.6642 118.373 70.6442 118.56 69.4575 118.56H65.0375L65.6975 117.88V123H64.2175ZM73.7775 123L70.1775 117.92H71.7775L75.3975 123H73.7775ZM65.6975 118L65.0375 117.3H69.4175C70.8175 117.3 71.8775 116.993 72.5975 116.38C73.3308 115.767 73.6975 114.907 73.6975 113.8C73.6975 112.68 73.3308 111.813 72.5975 111.2C71.8775 110.587 70.8175 110.28 69.4175 110.28H65.0375L65.6975 109.58V118ZM82.7106 123.1C81.8173 123.1 81.0373 122.933 80.3706 122.6C79.704 122.267 79.184 121.767 78.8106 121.1C78.4506 120.433 78.2706 119.6 78.2706 118.6V112.5H79.6906V118.44C79.6906 119.56 79.964 120.407 80.5106 120.98C81.0706 121.54 81.8506 121.82 82.8506 121.82C83.584 121.82 84.2173 121.673 84.7506 121.38C85.2973 121.073 85.7106 120.633 85.9906 120.06C86.284 119.487 86.4306 118.8 86.4306 118V112.5H87.8506V123H86.4906V120.12L86.7106 120.64C86.3773 121.413 85.8573 122.02 85.1506 122.46C84.4573 122.887 83.644 123.1 82.7106 123.1ZM97.1681 112.4C98.0215 112.4 98.7681 112.567 99.4081 112.9C100.061 113.22 100.568 113.713 100.928 114.38C101.301 115.047 101.488 115.887 101.488 116.9V123H100.068V117.04C100.068 115.933 99.7881 115.1 99.2281 114.54C98.6815 113.967 97.9081 113.68 96.9081 113.68C96.1615 113.68 95.5081 113.833 94.9481 114.14C94.4015 114.433 93.9748 114.867 93.6681 115.44C93.3748 116 93.2281 116.68 93.2281 117.48V123H91.8081V112.5H93.1681V115.38L92.9481 114.84C93.2815 114.08 93.8148 113.487 94.5481 113.06C95.2815 112.62 96.1548 112.4 97.1681 112.4ZM110.684 112.4C111.537 112.4 112.284 112.567 112.924 112.9C113.577 113.22 114.084 113.713 114.444 114.38C114.817 115.047 115.004 115.887 115.004 116.9V123H113.584V117.04C113.584 115.933 113.304 115.1 112.744 114.54C112.197 113.967 111.424 113.68 110.424 113.68C109.677 113.68 109.024 113.833 108.464 114.14C107.917 114.433 107.49 114.867 107.184 115.44C106.89 116 106.744 116.68 106.744 117.48V123H105.324V112.5H106.684V115.38L106.464 114.84C106.797 114.08 107.33 113.487 108.064 113.06C108.797 112.62 109.67 112.4 110.684 112.4ZM118.839 123V112.5H120.259V123H118.839ZM119.559 110.18C119.266 110.18 119.019 110.08 118.819 109.88C118.619 109.68 118.519 109.44 118.519 109.16C118.519 108.88 118.619 108.647 118.819 108.46C119.019 108.26 119.266 108.16 119.559 108.16C119.853 108.16 120.099 108.253 120.299 108.44C120.499 108.627 120.599 108.86 120.599 109.14C120.599 109.433 120.499 109.68 120.299 109.88C120.113 110.08 119.866 110.18 119.559 110.18ZM129.57 112.4C130.424 112.4 131.17 112.567 131.81 112.9C132.464 113.22 132.97 113.713 133.33 114.38C133.704 115.047 133.89 115.887 133.89 116.9V123H132.47V117.04C132.47 115.933 132.19 115.1 131.63 114.54C131.084 113.967 130.31 113.68 129.31 113.68C128.564 113.68 127.91 113.833 127.35 114.14C126.804 114.433 126.377 114.867 126.07 115.44C125.777 116 125.63 116.68 125.63 117.48V123H124.21V112.5H125.57V115.38L125.35 114.84C125.684 114.08 126.217 113.487 126.95 113.06C127.684 112.62 128.557 112.4 129.57 112.4ZM142.206 126.98C141.246 126.98 140.326 126.84 139.446 126.56C138.566 126.28 137.853 125.88 137.306 125.36L138.026 124.28C138.519 124.72 139.126 125.067 139.846 125.32C140.579 125.587 141.353 125.72 142.166 125.72C143.499 125.72 144.479 125.407 145.106 124.78C145.733 124.167 146.046 123.207 146.046 121.9V119.28L146.246 117.48L146.106 115.68V112.5H147.466V121.72C147.466 123.533 147.019 124.86 146.126 125.7C145.246 126.553 143.939 126.98 142.206 126.98ZM141.946 122.6C140.946 122.6 140.046 122.387 139.246 121.96C138.446 121.52 137.813 120.913 137.346 120.14C136.893 119.367 136.666 118.48 136.666 117.48C136.666 116.48 136.893 115.6 137.346 114.84C137.813 114.067 138.446 113.467 139.246 113.04C140.046 112.613 140.946 112.4 141.946 112.4C142.879 112.4 143.719 112.593 144.466 112.98C145.213 113.367 145.806 113.94 146.246 114.7C146.686 115.46 146.906 116.387 146.906 117.48C146.906 118.573 146.686 119.5 146.246 120.26C145.806 121.02 145.213 121.6 144.466 122C143.719 122.4 142.879 122.6 141.946 122.6ZM142.086 121.34C142.859 121.34 143.546 121.18 144.146 120.86C144.746 120.527 145.219 120.073 145.566 119.5C145.913 118.913 146.086 118.24 146.086 117.48C146.086 116.72 145.913 116.053 145.566 115.48C145.219 114.907 144.746 114.46 144.146 114.14C143.546 113.807 142.859 113.64 142.086 113.64C141.326 113.64 140.639 113.807 140.026 114.14C139.426 114.46 138.953 114.907 138.606 115.48C138.273 116.053 138.106 116.72 138.106 117.48C138.106 118.24 138.273 118.913 138.606 119.5C138.953 120.073 139.426 120.527 140.026 120.86C140.639 121.18 141.326 121.34 142.086 121.34Z" fill="#171846"/>
<path d="M88.3732 27.2H91.4692V44H88.9012L79.6372 32.624V44H76.5412V27.2H79.1092L88.3732 38.576V27.2Z" fill="black"/>
<path d="M48 0H119.075V71.0748H48V0Z" fill="white" fill-opacity="0.01"/>
<path d="M53.9238 35.5374C53.9238 51.893 67.1827 65.1519 83.5383 65.1519C99.894 65.1519 113.153 51.893 113.153 35.5374C113.153 19.1817 99.894 5.9229 83.5383 5.9229" stroke="black" stroke-width="6.11988" stroke-linecap="round" stroke-linejoin="round"/>
</svg>
