<svg width="167" height="133" viewBox="0 0 167 133" fill="none" xmlns="http://www.w3.org/2000/svg">
<path d="M32.8071 109H34.2671V123H32.8071V109ZM24.0471 123H22.5671V109H24.0471V123ZM32.9471 116.54H23.8871V115.24H32.9471V116.54ZM45.1166 123V120.68L45.0566 120.3V116.42C45.0566 115.527 44.8033 114.84 44.2966 114.36C43.8033 113.88 43.0633 113.64 42.0766 113.64C41.3966 113.64 40.75 113.753 40.1366 113.98C39.5233 114.207 39.0033 114.507 38.5766 114.88L37.9366 113.82C38.47 113.367 39.11 113.02 39.8566 112.78C40.6033 112.527 41.39 112.4 42.2166 112.4C43.5766 112.4 44.6233 112.74 45.3566 113.42C46.1033 114.087 46.4766 115.107 46.4766 116.48V123H45.1166ZM41.4966 123.1C40.71 123.1 40.0233 122.973 39.4366 122.72C38.8633 122.453 38.4233 122.093 38.1166 121.64C37.81 121.173 37.6566 120.64 37.6566 120.04C37.6566 119.493 37.7833 119 38.0366 118.56C38.3033 118.107 38.73 117.747 39.3166 117.48C39.9166 117.2 40.7166 117.06 41.7166 117.06H45.3366V118.12H41.7566C40.7433 118.12 40.0366 118.3 39.6366 118.66C39.25 119.02 39.0566 119.467 39.0566 120C39.0566 120.6 39.29 121.08 39.7566 121.44C40.2233 121.8 40.8766 121.98 41.7166 121.98C42.5166 121.98 43.2033 121.8 43.7766 121.44C44.3633 121.067 44.79 120.533 45.0566 119.84L45.3766 120.82C45.11 121.513 44.6433 122.067 43.9766 122.48C43.3233 122.893 42.4966 123.1 41.4966 123.1ZM50.3335 123V112.5H51.6935V115.36L51.5535 114.86C51.8468 114.06 52.3402 113.453 53.0335 113.04C53.7268 112.613 54.5868 112.4 55.6135 112.4V113.78C55.5602 113.78 55.5068 113.78 55.4535 113.78C55.4002 113.767 55.3468 113.76 55.2935 113.76C54.1868 113.76 53.3202 114.1 52.6935 114.78C52.0668 115.447 51.7535 116.4 51.7535 117.64V123H50.3335ZM62.287 123.1C61.287 123.1 60.387 122.873 59.587 122.42C58.8003 121.967 58.1803 121.34 57.727 120.54C57.2736 119.727 57.047 118.793 57.047 117.74C57.047 116.673 57.2736 115.74 57.727 114.94C58.1803 114.14 58.8003 113.52 59.587 113.08C60.387 112.627 61.287 112.4 62.287 112.4C63.207 112.4 64.027 112.607 64.747 113.02C65.4803 113.433 66.0603 114.04 66.487 114.84C66.927 115.627 67.147 116.593 67.147 117.74C67.147 118.873 66.9336 119.84 66.507 120.64C66.0803 121.44 65.5003 122.053 64.767 122.48C64.047 122.893 63.2203 123.1 62.287 123.1ZM62.387 121.84C63.1336 121.84 63.8003 121.673 64.387 121.34C64.987 120.993 65.4536 120.513 65.787 119.9C66.1336 119.273 66.307 118.553 66.307 117.74C66.307 116.913 66.1336 116.193 65.787 115.58C65.4536 114.967 64.987 114.493 64.387 114.16C63.8003 113.813 63.1336 113.64 62.387 113.64C61.6536 113.64 60.9936 113.813 60.407 114.16C59.8203 114.493 59.3536 114.967 59.007 115.58C58.6603 116.193 58.487 116.913 58.487 117.74C58.487 118.553 58.6603 119.273 59.007 119.9C59.3536 120.513 59.8203 120.993 60.407 121.34C60.9936 121.673 61.6536 121.84 62.387 121.84ZM66.347 123V119.84L66.487 117.72L66.287 115.6V108.16H67.707V123H66.347ZM77.0816 123.1C76.1616 123.1 75.335 122.893 74.6016 122.48C73.8683 122.053 73.2883 121.44 72.8616 120.64C72.435 119.84 72.2216 118.873 72.2216 117.74C72.2216 116.593 72.435 115.627 72.8616 114.84C73.3016 114.04 73.8883 113.433 74.6216 113.02C75.355 112.607 76.175 112.4 77.0816 112.4C78.0816 112.4 78.975 112.627 79.7616 113.08C80.5616 113.52 81.1883 114.14 81.6416 114.94C82.095 115.74 82.3216 116.673 82.3216 117.74C82.3216 118.793 82.095 119.727 81.6416 120.54C81.1883 121.34 80.5616 121.967 79.7616 122.42C78.975 122.873 78.0816 123.1 77.0816 123.1ZM71.6616 123V108.16H73.0816V115.6L72.8816 117.72L73.0216 119.84V123H71.6616ZM76.9816 121.84C77.7283 121.84 78.395 121.673 78.9816 121.34C79.5683 120.993 80.035 120.513 80.3816 119.9C80.7283 119.273 80.9016 118.553 80.9016 117.74C80.9016 116.913 80.7283 116.193 80.3816 115.58C80.035 114.967 79.5683 114.493 78.9816 114.16C78.395 113.813 77.7283 113.64 76.9816 113.64C76.235 113.64 75.5616 113.813 74.9616 114.16C74.375 114.493 73.9083 114.967 73.5616 115.58C73.2283 116.193 73.0616 116.913 73.0616 117.74C73.0616 118.553 73.2283 119.273 73.5616 119.9C73.9083 120.513 74.375 120.993 74.9616 121.34C75.5616 121.673 76.235 121.84 76.9816 121.84ZM85.2163 123V112.5H86.5763V115.36L86.4363 114.86C86.7297 114.06 87.223 113.453 87.9163 113.04C88.6097 112.613 89.4697 112.4 90.4963 112.4V113.78C90.443 113.78 90.3897 113.78 90.3363 113.78C90.283 113.767 90.2297 113.76 90.1763 113.76C89.0697 113.76 88.203 114.1 87.5763 114.78C86.9497 115.447 86.6363 116.4 86.6363 117.64V123H85.2163ZM98.8862 123V120.68L98.8262 120.3V116.42C98.8262 115.527 98.5728 114.84 98.0662 114.36C97.5728 113.88 96.8328 113.64 95.8462 113.64C95.1662 113.64 94.5195 113.753 93.9062 113.98C93.2928 114.207 92.7728 114.507 92.3462 114.88L91.7062 113.82C92.2395 113.367 92.8795 113.02 93.6262 112.78C94.3728 112.527 95.1595 112.4 95.9862 112.4C97.3462 112.4 98.3928 112.74 99.1262 113.42C99.8728 114.087 100.246 115.107 100.246 116.48V123H98.8862ZM95.2662 123.1C94.4795 123.1 93.7928 122.973 93.2062 122.72C92.6328 122.453 92.1928 122.093 91.8862 121.64C91.5795 121.173 91.4262 120.64 91.4262 120.04C91.4262 119.493 91.5528 119 91.8062 118.56C92.0728 118.107 92.4995 117.747 93.0862 117.48C93.6862 117.2 94.4862 117.06 95.4862 117.06H99.1062V118.12H95.5262C94.5128 118.12 93.8062 118.3 93.4062 118.66C93.0195 119.02 92.8262 119.467 92.8262 120C92.8262 120.6 93.0595 121.08 93.5262 121.44C93.9928 121.8 94.6462 121.98 95.4862 121.98C96.2862 121.98 96.9728 121.8 97.5462 121.44C98.1328 121.067 98.5595 120.533 98.8262 119.84L99.1462 120.82C98.8795 121.513 98.4128 122.067 97.7462 122.48C97.0928 122.893 96.2662 123.1 95.2662 123.1ZM105.223 120.28L105.263 118.46L111.803 112.5H113.543L108.923 116.92L108.123 117.6L105.223 120.28ZM104.103 123V108.16H105.523V123H104.103ZM112.243 123L107.863 117.54L108.783 116.44L113.983 123H112.243ZM116.115 123V112.5H117.535V123H116.115ZM116.835 110.18C116.541 110.18 116.295 110.08 116.095 109.88C115.895 109.68 115.795 109.44 115.795 109.16C115.795 108.88 115.895 108.647 116.095 108.46C116.295 108.26 116.541 108.16 116.835 108.16C117.128 108.16 117.375 108.253 117.575 108.44C117.775 108.627 117.875 108.86 117.875 109.14C117.875 109.433 117.775 109.68 117.575 109.88C117.388 110.08 117.141 110.18 116.835 110.18ZM126.846 112.4C127.699 112.4 128.446 112.567 129.086 112.9C129.739 113.22 130.246 113.713 130.606 114.38C130.979 115.047 131.166 115.887 131.166 116.9V123H129.746V117.04C129.746 115.933 129.466 115.1 128.906 114.54C128.359 113.967 127.586 113.68 126.586 113.68C125.839 113.68 125.186 113.833 124.626 114.14C124.079 114.433 123.653 114.867 123.346 115.44C123.053 116 122.906 116.68 122.906 117.48V123H121.486V112.5H122.846V115.38L122.626 114.84C122.959 114.08 123.493 113.487 124.226 113.06C124.959 112.62 125.833 112.4 126.846 112.4ZM139.481 126.98C138.521 126.98 137.601 126.84 136.721 126.56C135.841 126.28 135.128 125.88 134.581 125.36L135.301 124.28C135.795 124.72 136.401 125.067 137.121 125.32C137.855 125.587 138.628 125.72 139.441 125.72C140.775 125.72 141.755 125.407 142.381 124.78C143.008 124.167 143.321 123.207 143.321 121.9V119.28L143.521 117.48L143.381 115.68V112.5H144.741V121.72C144.741 123.533 144.295 124.86 143.401 125.7C142.521 126.553 141.215 126.98 139.481 126.98ZM139.221 122.6C138.221 122.6 137.321 122.387 136.521 121.96C135.721 121.52 135.088 120.913 134.621 120.14C134.168 119.367 133.941 118.48 133.941 117.48C133.941 116.48 134.168 115.6 134.621 114.84C135.088 114.067 135.721 113.467 136.521 113.04C137.321 112.613 138.221 112.4 139.221 112.4C140.155 112.4 140.995 112.593 141.741 112.98C142.488 113.367 143.081 113.94 143.521 114.7C143.961 115.46 144.181 116.387 144.181 117.48C144.181 118.573 143.961 119.5 143.521 120.26C143.081 121.02 142.488 121.6 141.741 122C140.995 122.4 140.155 122.6 139.221 122.6ZM139.361 121.34C140.135 121.34 140.821 121.18 141.421 120.86C142.021 120.527 142.495 120.073 142.841 119.5C143.188 118.913 143.361 118.24 143.361 117.48C143.361 116.72 143.188 116.053 142.841 115.48C142.495 114.907 142.021 114.46 141.421 114.14C140.821 113.807 140.135 113.64 139.361 113.64C138.601 113.64 137.915 113.807 137.301 114.14C136.701 114.46 136.228 114.907 135.881 115.48C135.548 116.053 135.381 116.72 135.381 117.48C135.381 118.24 135.548 118.913 135.881 119.5C136.228 120.073 136.701 120.527 137.301 120.86C137.915 121.18 138.601 121.34 139.361 121.34Z" fill="#171846"/>
<path d="M48 0H119.075V71.0748H48V0Z" fill="white" fill-opacity="0.01"/>
<path d="M53.9238 35.5374C53.9238 51.893 67.1827 65.1519 83.5383 65.1519C99.894 65.1519 113.153 51.893 113.153 35.5374C113.153 19.1817 99.894 5.9229 83.5383 5.9229" stroke="black" stroke-width="6.11988" stroke-linecap="round" stroke-linejoin="round"/>
<path d="M101.307 35.5374C101.307 25.724 93.3516 17.7687 83.5382 17.7687C73.7249 17.7687 65.7695 25.724 65.7695 35.5374C65.7695 45.3507 73.7249 53.3061 83.5382 53.3061" stroke="#171846" stroke-width="6.11988" stroke-linecap="round" stroke-linejoin="round"/>
</svg>
