<svg width="205" height="170" viewBox="0 0 205 170" fill="none" xmlns="http://www.w3.org/2000/svg">
<path fill-rule="evenodd" clip-rule="evenodd" d="M125.909 33.746C124.753 33.794 124.253 35.226 125.122 35.986C135.805 45.663 142.009 59.382 142.009 73.898C142.009 74.606 142.586 75.179 143.289 75.179C143.998 75.179 144.576 74.606 144.576 73.898C144.576 58.653 138.051 44.241 126.843 34.085C126.591 33.85 126.253 33.726 125.909 33.746Z" fill="black"/>
<path fill-rule="evenodd" clip-rule="evenodd" d="M113.378 50.975C112.165 50.98 111.638 52.512 112.591 53.262C118.695 58.215 122.331 65.794 122.331 73.898C122.294 74.627 122.878 75.241 123.607 75.241C124.342 75.241 124.924 74.628 124.888 73.898C124.888 65.027 120.919 56.715 114.205 51.267C113.971 51.074 113.679 50.97 113.378 50.975Z" fill="black"/>
<path fill-rule="evenodd" clip-rule="evenodd" d="M119.753 42.163C118.608 42.246 118.144 43.683 119.024 44.418C127.456 51.71 132.379 62.481 132.379 73.898C132.379 74.606 132.952 75.179 133.66 75.179C134.368 75.179 134.941 74.606 134.941 73.898C134.941 61.741 129.701 50.267 120.696 42.486C120.435 42.257 120.097 42.137 119.753 42.163Z" fill="black"/>
<path fill-rule="evenodd" clip-rule="evenodd" d="M87.9711 35.049C89.5341 32.804 90.4301 30.309 90.8201 26.773L86.5281 32.648L87.9711 35.049ZM79.1431 42.737C82.2521 41.314 84.8151 39.429 87.1121 36.377L85.6211 33.882L79.1431 42.737ZM76.3831 45.221C76.0701 44.981 75.9981 44.549 76.2221 44.241L91.3511 23.56C91.7581 22.992 92.6901 23.336 92.6701 24.044C92.5551 30.628 91.1431 33.377 88.2941 37.309C85.4511 41.237 82.0661 43.789 77.0661 45.361C76.8371 45.429 76.5751 45.377 76.3831 45.221Z" fill="black"/>
<path fill-rule="evenodd" clip-rule="evenodd" d="M67.1071 62.965L68.2271 61.429C68.6901 60.798 69.0701 59.716 68.4461 57.825L66.8831 59.956C66.5231 60.445 66.4091 62.101 67.1071 62.965ZM66.2531 65.57C66.1491 65.491 66.0661 65.387 66.0091 65.273C64.6901 62.637 64.4721 60.304 65.6281 58.716L67.9471 55.555C68.3271 55.034 69.1141 55.086 69.4201 55.654C69.6851 56.143 69.9201 56.629 70.0921 57.107C70.9881 59.586 70.3951 61.424 69.6391 62.462L67.4881 65.394C67.2011 65.789 66.6431 65.866 66.2531 65.57Z" fill="black"/>
<path fill-rule="evenodd" clip-rule="evenodd" d="M83.9507 75.294L85.0747 73.757C85.5387 73.128 86.4547 72.434 88.4507 72.461L86.8877 74.59C86.5287 75.079 84.9927 75.694 83.9507 75.294ZM81.7267 76.893C81.8357 76.965 81.9547 77.017 82.0857 77.038C84.9977 77.491 87.2887 76.997 88.4457 75.413L90.7627 72.246C91.1427 71.731 90.8557 70.991 90.2267 70.871C89.6747 70.767 89.1377 70.688 88.6317 70.668C85.9967 70.569 84.4237 71.693 83.6687 72.725L81.5217 75.662C81.2327 76.059 81.3257 76.611 81.7267 76.893Z" fill="black"/>
<path fill-rule="evenodd" clip-rule="evenodd" d="M104.023 15.194C103.654 14.918 103.066 14.715 102.424 14.683C101.763 14.652 101.164 14.803 100.793 15.012C100.418 15.215 100.32 15.407 100.309 15.527C100.304 15.647 100.382 15.846 100.732 16.084C101.075 16.324 101.653 16.532 102.315 16.564C102.976 16.595 103.575 16.449 103.951 16.24C104.326 16.032 104.419 15.84 104.424 15.72C104.43 15.622 104.43 15.507 104.023 15.194ZM105.075 13.803C105.758 14.324 106.206 15.054 106.164 15.808C106.117 16.688 105.512 17.371 104.788 17.767C104.069 18.163 103.189 18.355 102.232 18.308C101.279 18.267 100.413 17.985 99.7362 17.521C99.0602 17.058 98.5232 16.324 98.5692 15.438C98.6172 14.558 99.2212 13.881 99.9402 13.485C100.659 13.084 101.549 12.902 102.503 12.944C103.441 12.991 104.351 13.257 105.075 13.803Z" fill="black"/>
<path fill-rule="evenodd" clip-rule="evenodd" d="M71.987 73.945C68.435 71.346 65.842 68.189 64.523 65.284C63.211 62.383 63.19 59.872 64.408 58.2L71.055 49.117C71.274 48.814 71.315 48.418 71.164 48.08L70.189 45.861C69.992 45.408 70.205 44.798 70.544 44.648C70.94 44.476 71.304 44.659 71.7 45.263L71.888 45.555C72.284 46.175 73.184 46.206 73.617 45.612L96.82 13.904C97.627 12.795 99.169 11.555 101.877 11.476C104.58 11.399 108.538 12.544 113.992 16.533C119.44 20.522 121.732 23.95 122.476 26.549C123.221 29.148 122.503 30.997 121.695 32.101L98.498 63.809C98.061 64.408 98.362 65.252 99.075 65.44L99.414 65.533C100.107 65.732 100.389 66.017 100.342 66.456C100.305 66.82 99.785 67.211 99.299 67.159L96.888 66.899C96.517 66.856 96.153 67.018 95.929 67.32L89.288 76.399C88.065 78.071 85.664 78.81 82.497 78.435C79.331 78.059 75.539 76.538 71.987 73.945ZM70.753 75.631C74.561 78.418 78.633 80.084 82.253 80.512C85.868 80.944 89.17 80.111 90.982 77.636L97.263 69.043L99.07 69.231C100.643 69.403 101.961 68.376 102.351 67.038C102.55 66.366 102.482 65.565 102.055 64.898C101.815 64.522 101.288 64.366 100.867 64.122L123.388 33.341C124.528 31.784 125.413 29.184 124.492 25.97C123.569 22.757 120.908 19.007 115.227 14.846C109.539 10.683 105.159 9.28899 101.815 9.38199C98.471 9.46999 96.268 11.106 95.127 12.663L72.607 43.444C72.242 43.121 71.94 42.663 71.508 42.548C70.741 42.34 69.955 42.521 69.377 42.912C68.221 43.688 67.637 45.256 68.278 46.704L69.002 48.365L62.715 56.96C60.907 59.433 61.111 62.835 62.616 66.152C64.122 69.47 66.946 72.846 70.753 75.631Z" fill="black"/>
<path fill-rule="evenodd" clip-rule="evenodd" d="M83.1747 58.669C80.4707 56.674 77.1897 52.866 76.3717 49.997L83.6837 46.461C85.5277 48.325 87.5327 50.002 88.8147 50.94C90.1017 51.877 92.3037 53.284 94.6377 54.476L93.4817 62.513C90.5027 62.606 85.8887 60.637 83.1747 58.669ZM94.3617 64.371C94.7417 64.319 95.0447 64.022 95.1017 63.636L96.4607 54.163C96.5127 53.783 96.3157 53.407 95.9657 53.24C93.5087 52.059 91.1897 50.516 89.8457 49.532C88.5027 48.548 86.3307 46.808 84.4547 44.824C84.1947 44.543 83.7787 44.46 83.4297 44.627L74.8097 48.794C74.4657 48.965 74.2737 49.346 74.3417 49.726C75.0387 53.647 78.9977 57.757 82.1487 60.059C85.2987 62.361 90.4137 64.893 94.3617 64.371Z" fill="black"/>
<path fill-rule="evenodd" clip-rule="evenodd" d="M118.455 29.059C118.075 28.788 117.706 28.294 117.482 27.688C117.253 27.064 117.217 26.455 117.299 26.032C117.383 25.616 117.534 25.46 117.648 25.417C117.757 25.376 117.971 25.386 118.304 25.646C118.643 25.906 119.008 26.391 119.241 27.011C119.47 27.635 119.512 28.25 119.429 28.672C119.345 29.088 119.184 29.239 119.074 29.281C118.987 29.314 118.873 29.35 118.455 29.059ZM117.446 30.481C118.149 30.976 118.977 31.18 119.69 30.913C120.513 30.601 120.977 29.82 121.138 29.013C121.299 28.205 121.211 27.304 120.883 26.408C120.55 25.513 120.023 24.773 119.372 24.268C118.727 23.768 117.861 23.476 117.039 23.789C116.211 24.101 115.752 24.877 115.586 25.684C115.425 26.492 115.518 27.399 115.851 28.289C116.175 29.168 116.706 29.955 117.446 30.481Z" fill="black"/>
<path fill-rule="evenodd" clip-rule="evenodd" d="M107.055 38.303C105.367 36.418 103.684 34.694 101.742 33.278C99.8045 31.855 97.6485 30.773 95.3455 29.737L96.3095 22.628C97.2575 22.169 98.8615 22.289 100.805 23.112C102.873 23.987 105.076 25.399 106.66 26.555C108.237 27.711 110.248 29.388 111.712 31.091C113.081 32.695 113.691 34.19 113.54 35.232L107.055 38.303ZM106.373 40.043C106.638 40.246 106.993 40.288 107.289 40.142L114.889 36.538C115.113 36.429 115.28 36.231 115.346 35.991C115.925 33.928 114.649 31.84 113.039 29.964C111.43 28.084 109.346 26.36 107.69 25.147C106.029 23.934 103.753 22.464 101.477 21.502C99.2005 20.538 96.8255 19.955 95.0335 21.127C94.8255 21.267 94.6895 21.491 94.6585 21.736L93.5175 30.069C93.4655 30.46 93.6785 30.84 94.0445 31.001C96.5335 32.084 98.7275 33.23 100.722 34.657C102.69 36.13 104.446 37.87 106.237 39.922C106.279 39.97 106.321 40.013 106.373 40.043Z" fill="black"/>
<path fill-rule="evenodd" clip-rule="evenodd" d="M104.242 46.955C105.914 44.788 108.018 43.179 111.269 41.731L106.972 47.6L104.242 46.955ZM99.5859 57.694C100.003 54.298 101.029 51.289 103.237 48.174L106.066 48.841L99.5859 57.694ZM98.0549 61.079C98.3829 61.298 98.8149 61.236 99.0389 60.939L114.17 40.257C114.586 39.694 113.977 38.908 113.31 39.142C107.07 41.246 104.878 43.423 101.993 47.33C99.1079 51.231 97.7059 55.226 97.7169 60.47C97.7219 60.71 97.8459 60.939 98.0549 61.079Z" fill="black"/>
<path d="M32.5591 146H34.0191V160H32.5591V146ZM23.7991 160H22.3191V146H23.7991V160ZM32.6991 153.54H23.6391V152.24H32.6991V153.54ZM44.8686 160V157.68L44.8086 157.3V153.42C44.8086 152.527 44.5553 151.84 44.0486 151.36C43.5553 150.88 42.8153 150.64 41.8286 150.64C41.1486 150.64 40.5019 150.753 39.8886 150.98C39.2753 151.207 38.7553 151.507 38.3286 151.88L37.6886 150.82C38.2219 150.367 38.8619 150.02 39.6086 149.78C40.3553 149.527 41.1419 149.4 41.9686 149.4C43.3286 149.4 44.3753 149.74 45.1086 150.42C45.8553 151.087 46.2286 152.107 46.2286 153.48V160H44.8686ZM41.2486 160.1C40.4619 160.1 39.7753 159.973 39.1886 159.72C38.6153 159.453 38.1753 159.093 37.8686 158.64C37.5619 158.173 37.4086 157.64 37.4086 157.04C37.4086 156.493 37.5353 156 37.7886 155.56C38.0553 155.107 38.4819 154.747 39.0686 154.48C39.6686 154.2 40.4686 154.06 41.4686 154.06H45.0886V155.12H41.5086C40.4953 155.12 39.7886 155.3 39.3886 155.66C39.0019 156.02 38.8086 156.467 38.8086 157C38.8086 157.6 39.0419 158.08 39.5086 158.44C39.9753 158.8 40.6286 158.98 41.4686 158.98C42.2686 158.98 42.9553 158.8 43.5286 158.44C44.1153 158.067 44.5419 157.533 44.8086 156.84L45.1286 157.82C44.8619 158.513 44.3953 159.067 43.7286 159.48C43.0753 159.893 42.2486 160.1 41.2486 160.1ZM50.0855 160V149.5H51.4455V152.36L51.3055 151.86C51.5988 151.06 52.0921 150.453 52.7855 150.04C53.4788 149.613 54.3388 149.4 55.3655 149.4V150.78C55.3121 150.78 55.2588 150.78 55.2055 150.78C55.1521 150.767 55.0988 150.76 55.0455 150.76C53.9388 150.76 53.0721 151.1 52.4455 151.78C51.8188 152.447 51.5055 153.4 51.5055 154.64V160H50.0855ZM60.8938 160.1C60.0271 160.1 59.2071 159.98 58.4338 159.74C57.6604 159.487 57.0538 159.173 56.6138 158.8L57.2538 157.68C57.6804 158 58.2271 158.28 58.8938 158.52C59.5604 158.747 60.2604 158.86 60.9938 158.86C61.9938 158.86 62.7138 158.707 63.1538 158.4C63.5938 158.08 63.8138 157.66 63.8138 157.14C63.8138 156.753 63.6871 156.453 63.4338 156.24C63.1938 156.013 62.8738 155.847 62.4738 155.74C62.0738 155.62 61.6271 155.52 61.1338 155.44C60.6404 155.36 60.1471 155.267 59.6538 155.16C59.1738 155.053 58.7338 154.9 58.3338 154.7C57.9338 154.487 57.6071 154.2 57.3538 153.84C57.1138 153.48 56.9938 153 56.9938 152.4C56.9938 151.827 57.1538 151.313 57.4738 150.86C57.7938 150.407 58.2604 150.053 58.8738 149.8C59.5004 149.533 60.2604 149.4 61.1538 149.4C61.8338 149.4 62.5138 149.493 63.1938 149.68C63.8738 149.853 64.4338 150.087 64.8738 150.38L64.2538 151.52C63.7871 151.2 63.2871 150.973 62.7538 150.84C62.2204 150.693 61.6871 150.62 61.1538 150.62C60.2071 150.62 59.5071 150.787 59.0538 151.12C58.6138 151.44 58.3938 151.853 58.3938 152.36C58.3938 152.76 58.5138 153.073 58.7538 153.3C59.0071 153.527 59.3338 153.707 59.7338 153.84C60.1471 153.96 60.5938 154.06 61.0738 154.14C61.5671 154.22 62.0538 154.32 62.5338 154.44C63.0271 154.547 63.4738 154.7 63.8738 154.9C64.2871 155.087 64.6138 155.36 64.8538 155.72C65.1071 156.067 65.2338 156.527 65.2338 157.1C65.2338 157.713 65.0604 158.247 64.7138 158.7C64.3804 159.14 63.8871 159.487 63.2338 159.74C62.5938 159.98 61.8138 160.1 60.8938 160.1ZM73.1994 149.4C74.0527 149.4 74.7994 149.567 75.4394 149.9C76.0927 150.22 76.5994 150.713 76.9594 151.38C77.3327 152.047 77.5194 152.887 77.5194 153.9V160H76.0994V154.04C76.0994 152.933 75.8194 152.1 75.2594 151.54C74.7127 150.967 73.9394 150.68 72.9394 150.68C72.1927 150.68 71.5394 150.833 70.9794 151.14C70.4327 151.433 70.006 151.867 69.6994 152.44C69.406 153 69.2594 153.68 69.2594 154.48V160H67.8394V145.16H69.2594V152.38L68.9794 151.84C69.3127 151.08 69.846 150.487 70.5794 150.06C71.3127 149.62 72.186 149.4 73.1994 149.4ZM92.9694 160.12C91.916 160.12 90.9427 159.947 90.0494 159.6C89.156 159.24 88.3827 158.74 87.7294 158.1C87.076 157.46 86.5627 156.707 86.1894 155.84C85.8294 154.973 85.6494 154.027 85.6494 153C85.6494 151.973 85.8294 151.027 86.1894 150.16C86.5627 149.293 87.076 148.54 87.7294 147.9C88.396 147.26 89.176 146.767 90.0694 146.42C90.9627 146.06 91.936 145.88 92.9894 145.88C94.0027 145.88 94.956 146.053 95.8494 146.4C96.7427 146.733 97.496 147.24 98.1094 147.92L97.1694 148.86C96.596 148.273 95.9627 147.853 95.2694 147.6C94.576 147.333 93.8294 147.2 93.0294 147.2C92.1894 147.2 91.4094 147.347 90.6894 147.64C89.9694 147.92 89.3427 148.327 88.8094 148.86C88.276 149.38 87.856 149.993 87.5494 150.7C87.256 151.393 87.1094 152.16 87.1094 153C87.1094 153.84 87.256 154.613 87.5494 155.32C87.856 156.013 88.276 156.627 88.8094 157.16C89.3427 157.68 89.9694 158.087 90.6894 158.38C91.4094 158.66 92.1894 158.8 93.0294 158.8C93.8294 158.8 94.576 158.667 95.2694 158.4C95.9627 158.133 96.596 157.707 97.1694 157.12L98.1094 158.06C97.496 158.74 96.7427 159.253 95.8494 159.6C94.956 159.947 93.996 160.12 92.9694 160.12ZM104.776 160.1C103.762 160.1 102.849 159.873 102.036 159.42C101.236 158.953 100.602 158.32 100.136 157.52C99.669 156.707 99.4356 155.78 99.4356 154.74C99.4356 153.687 99.669 152.76 100.136 151.96C100.602 151.16 101.236 150.533 102.036 150.08C102.836 149.627 103.749 149.4 104.776 149.4C105.816 149.4 106.736 149.627 107.536 150.08C108.349 150.533 108.982 151.16 109.436 151.96C109.902 152.76 110.136 153.687 110.136 154.74C110.136 155.78 109.902 156.707 109.436 157.52C108.982 158.32 108.349 158.953 107.536 159.42C106.722 159.873 105.802 160.1 104.776 160.1ZM104.776 158.84C105.536 158.84 106.209 158.673 106.796 158.34C107.382 157.993 107.842 157.513 108.176 156.9C108.522 156.273 108.696 155.553 108.696 154.74C108.696 153.913 108.522 153.193 108.176 152.58C107.842 151.967 107.382 151.493 106.796 151.16C106.209 150.813 105.542 150.64 104.796 150.64C104.049 150.64 103.382 150.813 102.796 151.16C102.209 151.493 101.742 151.967 101.396 152.58C101.049 153.193 100.876 153.913 100.876 154.74C100.876 155.553 101.049 156.273 101.396 156.9C101.742 157.513 102.209 157.993 102.796 158.34C103.382 158.673 104.042 158.84 104.776 158.84ZM113.035 160V149.5H114.395V152.36L114.255 151.86C114.548 151.06 115.041 150.453 115.735 150.04C116.428 149.613 117.288 149.4 118.315 149.4V150.78C118.261 150.78 118.208 150.78 118.155 150.78C118.101 150.767 118.048 150.76 117.995 150.76C116.888 150.76 116.021 151.1 115.395 151.78C114.768 152.447 114.455 153.4 114.455 154.64V160H113.035ZM126.266 149.4C127.119 149.4 127.866 149.567 128.506 149.9C129.159 150.22 129.666 150.713 130.026 151.38C130.399 152.047 130.586 152.887 130.586 153.9V160H129.166V154.04C129.166 152.933 128.886 152.1 128.326 151.54C127.779 150.967 127.006 150.68 126.006 150.68C125.259 150.68 124.606 150.833 124.046 151.14C123.499 151.433 123.072 151.867 122.766 152.44C122.472 153 122.326 153.68 122.326 154.48V160H120.906V149.5H122.266V152.38L122.046 151.84C122.379 151.08 122.912 150.487 123.646 150.06C124.379 149.62 125.252 149.4 126.266 149.4ZM138.881 160.1C137.788 160.1 136.828 159.873 136.001 159.42C135.175 158.953 134.528 158.32 134.061 157.52C133.595 156.707 133.361 155.78 133.361 154.74C133.361 153.7 133.581 152.78 134.021 151.98C134.475 151.18 135.088 150.553 135.861 150.1C136.648 149.633 137.528 149.4 138.501 149.4C139.488 149.4 140.361 149.627 141.121 150.08C141.895 150.52 142.501 151.147 142.941 151.96C143.381 152.76 143.601 153.687 143.601 154.74C143.601 154.807 143.595 154.88 143.581 154.96C143.581 155.027 143.581 155.1 143.581 155.18H134.441V154.12H142.821L142.261 154.54C142.261 153.78 142.095 153.107 141.761 152.52C141.441 151.92 141.001 151.453 140.441 151.12C139.881 150.787 139.235 150.62 138.501 150.62C137.781 150.62 137.135 150.787 136.561 151.12C135.988 151.453 135.541 151.92 135.221 152.52C134.901 153.12 134.741 153.807 134.741 154.58V154.8C134.741 155.6 134.915 156.307 135.261 156.92C135.621 157.52 136.115 157.993 136.741 158.34C137.381 158.673 138.108 158.84 138.921 158.84C139.561 158.84 140.155 158.727 140.701 158.5C141.261 158.273 141.741 157.927 142.141 157.46L142.941 158.38C142.475 158.94 141.888 159.367 141.181 159.66C140.488 159.953 139.721 160.1 138.881 160.1ZM146.492 160V149.5H147.852V152.36L147.712 151.86C148.005 151.06 148.498 150.453 149.192 150.04C149.885 149.613 150.745 149.4 151.772 149.4V150.78C151.718 150.78 151.665 150.78 151.612 150.78C151.558 150.767 151.505 150.76 151.452 150.76C150.345 150.76 149.478 151.1 148.852 151.78C148.225 152.447 147.912 153.4 147.912 154.64V160H146.492ZM154.363 160V149.5H155.783V160H154.363ZM155.083 147.18C154.789 147.18 154.543 147.08 154.343 146.88C154.143 146.68 154.043 146.44 154.043 146.16C154.043 145.88 154.143 145.647 154.343 145.46C154.543 145.26 154.789 145.16 155.083 145.16C155.376 145.16 155.623 145.253 155.823 145.44C156.023 145.627 156.123 145.86 156.123 146.14C156.123 146.433 156.023 146.68 155.823 146.88C155.636 147.08 155.389 147.18 155.083 147.18ZM165.094 149.4C165.947 149.4 166.694 149.567 167.334 149.9C167.987 150.22 168.494 150.713 168.854 151.38C169.227 152.047 169.414 152.887 169.414 153.9V160H167.994V154.04C167.994 152.933 167.714 152.1 167.154 151.54C166.607 150.967 165.834 150.68 164.834 150.68C164.087 150.68 163.434 150.833 162.874 151.14C162.327 151.433 161.901 151.867 161.594 152.44C161.301 153 161.154 153.68 161.154 154.48V160H159.734V149.5H161.094V152.38L160.874 151.84C161.207 151.08 161.741 150.487 162.474 150.06C163.207 149.62 164.081 149.4 165.094 149.4ZM177.73 163.98C176.77 163.98 175.85 163.84 174.97 163.56C174.09 163.28 173.376 162.88 172.83 162.36L173.55 161.28C174.043 161.72 174.65 162.067 175.37 162.32C176.103 162.587 176.876 162.72 177.69 162.72C179.023 162.72 180.003 162.407 180.63 161.78C181.256 161.167 181.57 160.207 181.57 158.9V156.28L181.77 154.48L181.63 152.68V149.5H182.99V158.72C182.99 160.533 182.543 161.86 181.65 162.7C180.77 163.553 179.463 163.98 177.73 163.98ZM177.47 159.6C176.47 159.6 175.57 159.387 174.77 158.96C173.97 158.52 173.336 157.913 172.87 157.14C172.416 156.367 172.19 155.48 172.19 154.48C172.19 153.48 172.416 152.6 172.87 151.84C173.336 151.067 173.97 150.467 174.77 150.04C175.57 149.613 176.47 149.4 177.47 149.4C178.403 149.4 179.243 149.593 179.99 149.98C180.736 150.367 181.33 150.94 181.77 151.7C182.21 152.46 182.43 153.387 182.43 154.48C182.43 155.573 182.21 156.5 181.77 157.26C181.33 158.02 180.736 158.6 179.99 159C179.243 159.4 178.403 159.6 177.47 159.6ZM177.61 158.34C178.383 158.34 179.07 158.18 179.67 157.86C180.27 157.527 180.743 157.073 181.09 156.5C181.436 155.913 181.61 155.24 181.61 154.48C181.61 153.72 181.436 153.053 181.09 152.48C180.743 151.907 180.27 151.46 179.67 151.14C179.07 150.807 178.383 150.64 177.61 150.64C176.85 150.64 176.163 150.807 175.55 151.14C174.95 151.46 174.476 151.907 174.13 152.48C173.796 153.053 173.63 153.72 173.63 154.48C173.63 155.24 173.796 155.913 174.13 156.5C174.476 157.073 174.95 157.527 175.55 157.86C176.163 158.18 176.85 158.34 177.61 158.34Z" fill="#171846"/>
</svg>
