<svg width="205" height="158" viewBox="0 0 205 158" fill="none" xmlns="http://www.w3.org/2000/svg">
<path d="M20.5473 134H22.0073V148H20.5473V134ZM11.7873 148H10.3073V134H11.7873V148ZM20.6873 141.54H11.6273V140.24H20.6873V141.54ZM32.8569 148V145.68L32.7969 145.3V141.42C32.7969 140.527 32.5435 139.84 32.0369 139.36C31.5435 138.88 30.8035 138.64 29.8169 138.64C29.1369 138.64 28.4902 138.753 27.8769 138.98C27.2635 139.207 26.7435 139.507 26.3169 139.88L25.6769 138.82C26.2102 138.367 26.8502 138.02 27.5969 137.78C28.3435 137.527 29.1302 137.4 29.9569 137.4C31.3169 137.4 32.3635 137.74 33.0969 138.42C33.8435 139.087 34.2169 140.107 34.2169 141.48V148H32.8569ZM29.2369 148.1C28.4502 148.1 27.7635 147.973 27.1769 147.72C26.6035 147.453 26.1635 147.093 25.8569 146.64C25.5502 146.173 25.3969 145.64 25.3969 145.04C25.3969 144.493 25.5235 144 25.7769 143.56C26.0435 143.107 26.4702 142.747 27.0569 142.48C27.6569 142.2 28.4569 142.06 29.4569 142.06H33.0769V143.12H29.4969C28.4835 143.12 27.7769 143.3 27.3769 143.66C26.9902 144.02 26.7969 144.467 26.7969 145C26.7969 145.6 27.0302 146.08 27.4969 146.44C27.9635 146.8 28.6169 146.98 29.4569 146.98C30.2569 146.98 30.9435 146.8 31.5169 146.44C32.1035 146.067 32.5302 145.533 32.7969 144.84L33.1169 145.82C32.8502 146.513 32.3835 147.067 31.7169 147.48C31.0635 147.893 30.2369 148.1 29.2369 148.1ZM38.0738 148V137.5H39.4338V140.36L39.2938 139.86C39.5871 139.06 40.0804 138.453 40.7738 138.04C41.4671 137.613 42.3271 137.4 43.3538 137.4V138.78C43.3004 138.78 43.2471 138.78 43.1938 138.78C43.1404 138.767 43.0871 138.76 43.0338 138.76C41.9271 138.76 41.0604 139.1 40.4338 139.78C39.8071 140.447 39.4938 141.4 39.4938 142.64V148H38.0738ZM48.882 148.1C48.0154 148.1 47.1954 147.98 46.422 147.74C45.6487 147.487 45.042 147.173 44.602 146.8L45.242 145.68C45.6687 146 46.2154 146.28 46.882 146.52C47.5487 146.747 48.2487 146.86 48.982 146.86C49.982 146.86 50.702 146.707 51.142 146.4C51.582 146.08 51.802 145.66 51.802 145.14C51.802 144.753 51.6754 144.453 51.422 144.24C51.182 144.013 50.862 143.847 50.462 143.74C50.062 143.62 49.6154 143.52 49.122 143.44C48.6287 143.36 48.1354 143.267 47.642 143.16C47.162 143.053 46.722 142.9 46.322 142.7C45.922 142.487 45.5954 142.2 45.342 141.84C45.102 141.48 44.982 141 44.982 140.4C44.982 139.827 45.142 139.313 45.462 138.86C45.782 138.407 46.2487 138.053 46.862 137.8C47.4887 137.533 48.2487 137.4 49.142 137.4C49.822 137.4 50.502 137.493 51.182 137.68C51.862 137.853 52.422 138.087 52.862 138.38L52.242 139.52C51.7754 139.2 51.2754 138.973 50.742 138.84C50.2087 138.693 49.6754 138.62 49.142 138.62C48.1954 138.62 47.4954 138.787 47.042 139.12C46.602 139.44 46.382 139.853 46.382 140.36C46.382 140.76 46.502 141.073 46.742 141.3C46.9954 141.527 47.322 141.707 47.722 141.84C48.1354 141.96 48.582 142.06 49.062 142.14C49.5554 142.22 50.042 142.32 50.522 142.44C51.0154 142.547 51.462 142.7 51.862 142.9C52.2754 143.087 52.602 143.36 52.842 143.72C53.0954 144.067 53.222 144.527 53.222 145.1C53.222 145.713 53.0487 146.247 52.702 146.7C52.3687 147.14 51.8754 147.487 51.222 147.74C50.582 147.98 49.802 148.1 48.882 148.1ZM61.1877 137.4C62.041 137.4 62.7877 137.567 63.4277 137.9C64.081 138.22 64.5877 138.713 64.9477 139.38C65.321 140.047 65.5077 140.887 65.5077 141.9V148H64.0877V142.04C64.0877 140.933 63.8077 140.1 63.2477 139.54C62.701 138.967 61.9277 138.68 60.9277 138.68C60.181 138.68 59.5277 138.833 58.9677 139.14C58.421 139.433 57.9943 139.867 57.6877 140.44C57.3943 141 57.2477 141.68 57.2477 142.48V148H55.8277V133.16H57.2477V140.38L56.9677 139.84C57.301 139.08 57.8343 138.487 58.5677 138.06C59.301 137.62 60.1743 137.4 61.1877 137.4ZM72.6377 148L79.0377 134H80.4977L86.8977 148H85.3377L79.4577 134.86H80.0577L74.1777 148H72.6377ZM75.1577 144.26L75.5977 143.06H83.7377L84.1777 144.26H75.1577ZM93.1759 148.1C92.1359 148.1 91.2026 147.873 90.3759 147.42C89.5626 146.953 88.9226 146.32 88.4559 145.52C87.9893 144.707 87.7559 143.78 87.7559 142.74C87.7559 141.687 87.9893 140.76 88.4559 139.96C88.9226 139.16 89.5626 138.533 90.3759 138.08C91.2026 137.627 92.1359 137.4 93.1759 137.4C94.0693 137.4 94.8759 137.573 95.5959 137.92C96.3159 138.267 96.8826 138.787 97.2959 139.48L96.2359 140.2C95.8759 139.667 95.4293 139.273 94.8959 139.02C94.3626 138.767 93.7826 138.64 93.1559 138.64C92.4093 138.64 91.7359 138.813 91.1359 139.16C90.5359 139.493 90.0626 139.967 89.7159 140.58C89.3693 141.193 89.1959 141.913 89.1959 142.74C89.1959 143.567 89.3693 144.287 89.7159 144.9C90.0626 145.513 90.5359 145.993 91.1359 146.34C91.7359 146.673 92.4093 146.84 93.1559 146.84C93.7826 146.84 94.3626 146.713 94.8959 146.46C95.4293 146.207 95.8759 145.82 96.2359 145.3L97.2959 146.02C96.8826 146.7 96.3159 147.22 95.5959 147.58C94.8759 147.927 94.0693 148.1 93.1759 148.1ZM104.27 148.1C103.23 148.1 102.296 147.873 101.47 147.42C100.656 146.953 100.016 146.32 99.5497 145.52C99.083 144.707 98.8497 143.78 98.8497 142.74C98.8497 141.687 99.083 140.76 99.5497 139.96C100.016 139.16 100.656 138.533 101.47 138.08C102.296 137.627 103.23 137.4 104.27 137.4C105.163 137.4 105.97 137.573 106.69 137.92C107.41 138.267 107.976 138.787 108.39 139.48L107.33 140.2C106.97 139.667 106.523 139.273 105.99 139.02C105.456 138.767 104.876 138.64 104.25 138.64C103.503 138.64 102.83 138.813 102.23 139.16C101.63 139.493 101.156 139.967 100.81 140.58C100.463 141.193 100.29 141.913 100.29 142.74C100.29 143.567 100.463 144.287 100.81 144.9C101.156 145.513 101.63 145.993 102.23 146.34C102.83 146.673 103.503 146.84 104.25 146.84C104.876 146.84 105.456 146.713 105.99 146.46C106.523 146.207 106.97 145.82 107.33 145.3L108.39 146.02C107.976 146.7 107.41 147.22 106.69 147.58C105.97 147.927 105.163 148.1 104.27 148.1ZM115.463 148.1C114.37 148.1 113.41 147.873 112.583 147.42C111.757 146.953 111.11 146.32 110.643 145.52C110.177 144.707 109.943 143.78 109.943 142.74C109.943 141.7 110.163 140.78 110.603 139.98C111.057 139.18 111.67 138.553 112.443 138.1C113.23 137.633 114.11 137.4 115.083 137.4C116.07 137.4 116.943 137.627 117.703 138.08C118.477 138.52 119.083 139.147 119.523 139.96C119.963 140.76 120.183 141.687 120.183 142.74C120.183 142.807 120.177 142.88 120.163 142.96C120.163 143.027 120.163 143.1 120.163 143.18H111.023V142.12H119.403L118.843 142.54C118.843 141.78 118.677 141.107 118.343 140.52C118.023 139.92 117.583 139.453 117.023 139.12C116.463 138.787 115.817 138.62 115.083 138.62C114.363 138.62 113.717 138.787 113.143 139.12C112.57 139.453 112.123 139.92 111.803 140.52C111.483 141.12 111.323 141.807 111.323 142.58V142.8C111.323 143.6 111.497 144.307 111.843 144.92C112.203 145.52 112.697 145.993 113.323 146.34C113.963 146.673 114.69 146.84 115.503 146.84C116.143 146.84 116.737 146.727 117.283 146.5C117.843 146.273 118.323 145.927 118.723 145.46L119.523 146.38C119.057 146.94 118.47 147.367 117.763 147.66C117.07 147.953 116.303 148.1 115.463 148.1ZM123.074 148V133.16H124.494V148H123.074ZM132.905 148.1C131.812 148.1 130.852 147.873 130.025 147.42C129.198 146.953 128.552 146.32 128.085 145.52C127.618 144.707 127.385 143.78 127.385 142.74C127.385 141.7 127.605 140.78 128.045 139.98C128.498 139.18 129.112 138.553 129.885 138.1C130.672 137.633 131.552 137.4 132.525 137.4C133.512 137.4 134.385 137.627 135.145 138.08C135.918 138.52 136.525 139.147 136.965 139.96C137.405 140.76 137.625 141.687 137.625 142.74C137.625 142.807 137.618 142.88 137.605 142.96C137.605 143.027 137.605 143.1 137.605 143.18H128.465V142.12H136.845L136.285 142.54C136.285 141.78 136.118 141.107 135.785 140.52C135.465 139.92 135.025 139.453 134.465 139.12C133.905 138.787 133.258 138.62 132.525 138.62C131.805 138.62 131.158 138.787 130.585 139.12C130.012 139.453 129.565 139.92 129.245 140.52C128.925 141.12 128.765 141.807 128.765 142.58V142.8C128.765 143.6 128.938 144.307 129.285 144.92C129.645 145.52 130.138 145.993 130.765 146.34C131.405 146.673 132.132 146.84 132.945 146.84C133.585 146.84 134.178 146.727 134.725 146.5C135.285 146.273 135.765 145.927 136.165 145.46L136.965 146.38C136.498 146.94 135.912 147.367 135.205 147.66C134.512 147.953 133.745 148.1 132.905 148.1ZM140.515 148V137.5H141.875V140.36L141.735 139.86C142.028 139.06 142.522 138.453 143.215 138.04C143.908 137.613 144.768 137.4 145.795 137.4V138.78C145.742 138.78 145.688 138.78 145.635 138.78C145.582 138.767 145.528 138.76 145.475 138.76C144.368 138.76 143.502 139.1 142.875 139.78C142.248 140.447 141.935 141.4 141.935 142.64V148H140.515ZM154.185 148V145.68L154.125 145.3V141.42C154.125 140.527 153.872 139.84 153.365 139.36C152.872 138.88 152.132 138.64 151.145 138.64C150.465 138.64 149.818 138.753 149.205 138.98C148.592 139.207 148.072 139.507 147.645 139.88L147.005 138.82C147.538 138.367 148.178 138.02 148.925 137.78C149.672 137.527 150.458 137.4 151.285 137.4C152.645 137.4 153.692 137.74 154.425 138.42C155.172 139.087 155.545 140.107 155.545 141.48V148H154.185ZM150.565 148.1C149.778 148.1 149.092 147.973 148.505 147.72C147.932 147.453 147.492 147.093 147.185 146.64C146.878 146.173 146.725 145.64 146.725 145.04C146.725 144.493 146.852 144 147.105 143.56C147.372 143.107 147.798 142.747 148.385 142.48C148.985 142.2 149.785 142.06 150.785 142.06H154.405V143.12H150.825C149.812 143.12 149.105 143.3 148.705 143.66C148.318 144.02 148.125 144.467 148.125 145C148.125 145.6 148.358 146.08 148.825 146.44C149.292 146.8 149.945 146.98 150.785 146.98C151.585 146.98 152.272 146.8 152.845 146.44C153.432 146.067 153.858 145.533 154.125 144.84L154.445 145.82C154.178 146.513 153.712 147.067 153.045 147.48C152.392 147.893 151.565 148.1 150.565 148.1ZM162.722 148.1C161.735 148.1 160.975 147.833 160.442 147.3C159.909 146.767 159.642 146.013 159.642 145.04V135.18H161.062V144.96C161.062 145.573 161.215 146.047 161.522 146.38C161.842 146.713 162.295 146.88 162.882 146.88C163.509 146.88 164.029 146.7 164.442 146.34L164.942 147.36C164.662 147.613 164.322 147.8 163.922 147.92C163.535 148.04 163.135 148.1 162.722 148.1ZM157.762 138.68V137.5H164.262V138.68H157.762ZM167.527 148V137.5H168.947V148H167.527ZM168.247 135.18C167.954 135.18 167.707 135.08 167.507 134.88C167.307 134.68 167.207 134.44 167.207 134.16C167.207 133.88 167.307 133.647 167.507 133.46C167.707 133.26 167.954 133.16 168.247 133.16C168.54 133.16 168.787 133.253 168.987 133.44C169.187 133.627 169.287 133.86 169.287 134.14C169.287 134.433 169.187 134.68 168.987 134.88C168.8 135.08 168.554 135.18 168.247 135.18ZM177.178 148.1C176.165 148.1 175.251 147.873 174.438 147.42C173.638 146.953 173.005 146.32 172.538 145.52C172.071 144.707 171.838 143.78 171.838 142.74C171.838 141.687 172.071 140.76 172.538 139.96C173.005 139.16 173.638 138.533 174.438 138.08C175.238 137.627 176.151 137.4 177.178 137.4C178.218 137.4 179.138 137.627 179.938 138.08C180.751 138.533 181.385 139.16 181.838 139.96C182.305 140.76 182.538 141.687 182.538 142.74C182.538 143.78 182.305 144.707 181.838 145.52C181.385 146.32 180.751 146.953 179.938 147.42C179.125 147.873 178.205 148.1 177.178 148.1ZM177.178 146.84C177.938 146.84 178.611 146.673 179.198 146.34C179.785 145.993 180.245 145.513 180.578 144.9C180.925 144.273 181.098 143.553 181.098 142.74C181.098 141.913 180.925 141.193 180.578 140.58C180.245 139.967 179.785 139.493 179.198 139.16C178.611 138.813 177.945 138.64 177.198 138.64C176.451 138.64 175.785 138.813 175.198 139.16C174.611 139.493 174.145 139.967 173.798 140.58C173.451 141.193 173.278 141.913 173.278 142.74C173.278 143.553 173.451 144.273 173.798 144.9C174.145 145.513 174.611 145.993 175.198 146.34C175.785 146.673 176.445 146.84 177.178 146.84ZM190.797 137.4C191.65 137.4 192.397 137.567 193.037 137.9C193.69 138.22 194.197 138.713 194.557 139.38C194.93 140.047 195.117 140.887 195.117 141.9V148H193.697V142.04C193.697 140.933 193.417 140.1 192.857 139.54C192.31 138.967 191.537 138.68 190.537 138.68C189.79 138.68 189.137 138.833 188.577 139.14C188.03 139.433 187.604 139.867 187.297 140.44C187.004 141 186.857 141.68 186.857 142.48V148H185.437V137.5H186.797V140.38L186.577 139.84C186.91 139.08 187.444 138.487 188.177 138.06C188.91 137.62 189.784 137.4 190.797 137.4Z" fill="#171846"/>
<path d="M117.453 7.90407C113.09 5.37207 108.02 3.92236 102.613 3.92236C86.258 3.92236 73 17.1803 73 33.5349C73 49.8894 86.258 63.1474 102.613 63.1474C118.967 63.1474 132.225 49.8894 132.225 33.5349C132.225 28.1642 130.795 23.1274 128.296 18.7844" stroke="black" stroke-width="6.06142" stroke-linecap="round" stroke-linejoin="round"/>
<path d="M114.383 21.7642C114.383 21.7642 109.367 35.1557 107.055 37.4686C104.742 39.7815 100.992 39.7815 98.679 37.4686C96.3661 35.1557 96.3661 31.4057 98.679 29.0928C100.992 26.78 114.383 21.7642 114.383 21.7642Z" fill="#EC9E39" stroke="black" stroke-width="6.06142" stroke-linejoin="round"/>
</svg>
