<svg width="167" height="128" viewBox="0 0 167 128" fill="none" xmlns="http://www.w3.org/2000/svg">
<path d="M57.0105 118V104H58.4905V118H57.0105ZM66.9256 118.1C65.9256 118.1 65.0256 117.873 64.2256 117.42C63.439 116.967 62.819 116.34 62.3656 115.54C61.9123 114.727 61.6856 113.793 61.6856 112.74C61.6856 111.673 61.9123 110.74 62.3656 109.94C62.819 109.14 63.439 108.52 64.2256 108.08C65.0256 107.627 65.9256 107.4 66.9256 107.4C67.8456 107.4 68.6656 107.607 69.3856 108.02C70.119 108.433 70.699 109.04 71.1256 109.84C71.5656 110.627 71.7856 111.593 71.7856 112.74C71.7856 113.873 71.5723 114.84 71.1456 115.64C70.719 116.44 70.139 117.053 69.4056 117.48C68.6856 117.893 67.859 118.1 66.9256 118.1ZM67.0256 116.84C67.7723 116.84 68.439 116.673 69.0256 116.34C69.6256 115.993 70.0923 115.513 70.4256 114.9C70.7723 114.273 70.9456 113.553 70.9456 112.74C70.9456 111.913 70.7723 111.193 70.4256 110.58C70.0923 109.967 69.6256 109.493 69.0256 109.16C68.439 108.813 67.7723 108.64 67.0256 108.64C66.2923 108.64 65.6323 108.813 65.0456 109.16C64.459 109.493 63.9923 109.967 63.6456 110.58C63.299 111.193 63.1256 111.913 63.1256 112.74C63.1256 113.553 63.299 114.273 63.6456 114.9C63.9923 115.513 64.459 115.993 65.0456 116.34C65.6323 116.673 66.2923 116.84 67.0256 116.84ZM70.9856 118V114.84L71.1256 112.72L70.9256 110.6V103.16H72.3456V118H70.9856ZM76.3003 118V103.16H77.7203V118H76.3003ZM81.6714 118V107.5H83.0914V118H81.6714ZM82.3914 105.18C82.0981 105.18 81.8514 105.08 81.6514 104.88C81.4514 104.68 81.3514 104.44 81.3514 104.16C81.3514 103.88 81.4514 103.647 81.6514 103.46C81.8514 103.26 82.0981 103.16 82.3914 103.16C82.6847 103.16 82.9314 103.253 83.1314 103.44C83.3314 103.627 83.4314 103.86 83.4314 104.14C83.4314 104.433 83.3314 104.68 83.1314 104.88C82.9447 105.08 82.6981 105.18 82.3914 105.18ZM92.4025 107.4C93.2558 107.4 94.0025 107.567 94.6425 107.9C95.2958 108.22 95.8025 108.713 96.1625 109.38C96.5358 110.047 96.7225 110.887 96.7225 111.9V118H95.3025V112.04C95.3025 110.933 95.0225 110.1 94.4625 109.54C93.9158 108.967 93.1425 108.68 92.1425 108.68C91.3958 108.68 90.7425 108.833 90.1825 109.14C89.6358 109.433 89.2092 109.867 88.9025 110.44C88.6092 111 88.4625 111.68 88.4625 112.48V118H87.0425V107.5H88.4025V110.38L88.1825 109.84C88.5158 109.08 89.0492 108.487 89.7825 108.06C90.5158 107.62 91.3892 107.4 92.4025 107.4ZM105.038 121.98C104.078 121.98 103.158 121.84 102.278 121.56C101.398 121.28 100.685 120.88 100.138 120.36L100.858 119.28C101.351 119.72 101.958 120.067 102.678 120.32C103.411 120.587 104.185 120.72 104.998 120.72C106.331 120.72 107.311 120.407 107.938 119.78C108.565 119.167 108.878 118.207 108.878 116.9V114.28L109.078 112.48L108.938 110.68V107.5H110.298V116.72C110.298 118.533 109.851 119.86 108.958 120.7C108.078 121.553 106.771 121.98 105.038 121.98ZM104.778 117.6C103.778 117.6 102.878 117.387 102.078 116.96C101.278 116.52 100.645 115.913 100.178 115.14C99.7248 114.367 99.4981 113.48 99.4981 112.48C99.4981 111.48 99.7248 110.6 100.178 109.84C100.645 109.067 101.278 108.467 102.078 108.04C102.878 107.613 103.778 107.4 104.778 107.4C105.711 107.4 106.551 107.593 107.298 107.98C108.045 108.367 108.638 108.94 109.078 109.7C109.518 110.46 109.738 111.387 109.738 112.48C109.738 113.573 109.518 114.5 109.078 115.26C108.638 116.02 108.045 116.6 107.298 117C106.551 117.4 105.711 117.6 104.778 117.6ZM104.918 116.34C105.691 116.34 106.378 116.18 106.978 115.86C107.578 115.527 108.051 115.073 108.398 114.5C108.745 113.913 108.918 113.24 108.918 112.48C108.918 111.72 108.745 111.053 108.398 110.48C108.051 109.907 107.578 109.46 106.978 109.14C106.378 108.807 105.691 108.64 104.918 108.64C104.158 108.64 103.471 108.807 102.858 109.14C102.258 109.46 101.785 109.907 101.438 110.48C101.105 111.053 100.938 111.72 100.938 112.48C100.938 113.24 101.105 113.913 101.438 114.5C101.785 115.073 102.258 115.527 102.858 115.86C103.471 116.18 104.158 116.34 104.918 116.34Z" fill="#171846"/>
<path d="M46 0.832031H117.075V71.9068H46V0.832031Z" fill="white" fill-opacity="0.01"/>
<path d="M117.075 0.832031H46V71.9068H117.075V0.832031Z" fill="white" fill-opacity="0.01"/>
<path d="M65.1156 54.7681C68.6841 54.7681 71.577 51.8752 71.577 48.3068C71.577 44.7383 68.6841 41.8454 65.1156 41.8454C61.5471 41.8454 58.6543 44.7383 58.6543 48.3068C58.6543 51.8752 61.5471 54.7681 65.1156 54.7681Z" stroke="black" stroke-width="6.11988" stroke-linejoin="round"/>
<path d="M102.268 54.7681C105.836 54.7681 108.729 51.8752 108.729 48.3068C108.729 44.7383 105.836 41.8454 102.268 41.8454C98.6995 41.8454 95.8066 44.7383 95.8066 48.3068C95.8066 51.8752 98.6995 54.7681 102.268 54.7681Z" stroke="black" stroke-width="6.11988" stroke-linejoin="round"/>
<path d="M58.6539 48.3067H48.9619V9.53869H95.8066V48.3067H71.5766" stroke="black" stroke-width="6.11988" stroke-linecap="round" stroke-linejoin="round"/>
<path d="M95.8066 48.3067V20.846H109.652L120.037 34.5764V48.3067H110.04" stroke="black" stroke-width="6.11988" stroke-linecap="round" stroke-linejoin="round"/>
</svg>
