<svg width="167" height="129" viewBox="0 0 167 129" fill="none" xmlns="http://www.w3.org/2000/svg">
<path d="M17.5055 118.236C16.4521 118.236 15.4721 118.062 14.5655 117.716C13.6721 117.356 12.8921 116.856 12.2255 116.216C11.5721 115.562 11.0588 114.809 10.6855 113.956C10.3255 113.089 10.1455 112.142 10.1455 111.116C10.1455 110.089 10.3255 109.149 10.6855 108.296C11.0588 107.429 11.5721 106.676 12.2255 106.036C12.8921 105.382 13.6721 104.882 14.5655 104.536C15.4588 104.176 16.4388 103.996 17.5055 103.996C18.5588 103.996 19.5321 104.176 20.4255 104.536C21.3188 104.882 22.0921 105.376 22.7455 106.016C23.4121 106.656 23.9255 107.409 24.2855 108.276C24.6588 109.142 24.8455 110.089 24.8455 111.116C24.8455 112.142 24.6588 113.089 24.2855 113.956C23.9255 114.822 23.4121 115.576 22.7455 116.216C22.0921 116.856 21.3188 117.356 20.4255 117.716C19.5321 118.062 18.5588 118.236 17.5055 118.236ZM17.5055 116.916C18.3455 116.916 19.1188 116.776 19.8255 116.496C20.5455 116.202 21.1655 115.796 21.6855 115.276C22.2188 114.742 22.6321 114.129 22.9255 113.436C23.2188 112.729 23.3655 111.956 23.3655 111.116C23.3655 110.276 23.2188 109.509 22.9255 108.816C22.6321 108.109 22.2188 107.496 21.6855 106.976C21.1655 106.442 20.5455 106.036 19.8255 105.756C19.1188 105.462 18.3455 105.316 17.5055 105.316C16.6655 105.316 15.8855 105.462 15.1655 105.756C14.4455 106.036 13.8188 106.442 13.2855 106.976C12.7655 107.496 12.3521 108.109 12.0455 108.816C11.7521 109.509 11.6055 110.276 11.6055 111.116C11.6055 111.942 11.7521 112.709 12.0455 113.416C12.3521 114.122 12.7655 114.742 13.2855 115.276C13.8188 115.796 14.4455 116.202 15.1655 116.496C15.8855 116.776 16.6655 116.916 17.5055 116.916ZM30.5628 118.116L25.9028 107.616H27.3828L31.6628 117.356H30.9628L35.3028 107.616H36.7028L32.0228 118.116H30.5628ZM42.8697 118.216C41.7764 118.216 40.8164 117.989 39.9897 117.536C39.163 117.069 38.5164 116.436 38.0497 115.636C37.583 114.822 37.3497 113.896 37.3497 112.856C37.3497 111.816 37.5697 110.896 38.0097 110.096C38.463 109.296 39.0764 108.669 39.8497 108.216C40.6364 107.749 41.5164 107.516 42.4897 107.516C43.4764 107.516 44.3497 107.742 45.1097 108.196C45.883 108.636 46.4897 109.262 46.9297 110.076C47.3697 110.876 47.5897 111.802 47.5897 112.856C47.5897 112.922 47.583 112.996 47.5697 113.076C47.5697 113.142 47.5697 113.216 47.5697 113.296H38.4297V112.236H46.8097L46.2497 112.656C46.2497 111.896 46.083 111.222 45.7497 110.636C45.4297 110.036 44.9897 109.569 44.4297 109.236C43.8697 108.902 43.223 108.736 42.4897 108.736C41.7697 108.736 41.123 108.902 40.5497 109.236C39.9764 109.569 39.5297 110.036 39.2097 110.636C38.8897 111.236 38.7297 111.922 38.7297 112.696V112.916C38.7297 113.716 38.903 114.422 39.2497 115.036C39.6097 115.636 40.103 116.109 40.7297 116.456C41.3697 116.789 42.0964 116.956 42.9097 116.956C43.5497 116.956 44.143 116.842 44.6897 116.616C45.2497 116.389 45.7297 116.042 46.1297 115.576L46.9297 116.496C46.463 117.056 45.8764 117.482 45.1697 117.776C44.4764 118.069 43.7097 118.216 42.8697 118.216ZM50.48 118.116V107.616H51.84V110.476L51.7 109.976C51.9933 109.176 52.4867 108.569 53.18 108.156C53.8733 107.729 54.7333 107.516 55.76 107.516V108.896C55.7067 108.896 55.6533 108.896 55.6 108.896C55.5467 108.882 55.4933 108.876 55.44 108.876C54.3333 108.876 53.4667 109.216 52.84 109.896C52.2133 110.562 51.9 111.516 51.9 112.756V118.116H50.48ZM67.9017 118.236C66.8617 118.236 65.8617 118.069 64.9017 117.736C63.9551 117.389 63.2217 116.949 62.7017 116.416L63.2817 115.276C63.7751 115.756 64.4351 116.162 65.2617 116.496C66.1017 116.816 66.9817 116.976 67.9017 116.976C68.7817 116.976 69.4951 116.869 70.0417 116.656C70.6017 116.429 71.0084 116.129 71.2617 115.756C71.5284 115.382 71.6617 114.969 71.6617 114.516C71.6617 113.969 71.5017 113.529 71.1817 113.196C70.8751 112.862 70.4684 112.602 69.9617 112.416C69.4551 112.216 68.8951 112.042 68.2817 111.896C67.6684 111.749 67.0551 111.596 66.4417 111.436C65.8284 111.262 65.2617 111.036 64.7417 110.756C64.2351 110.476 63.8217 110.109 63.5017 109.656C63.1951 109.189 63.0417 108.582 63.0417 107.836C63.0417 107.142 63.2217 106.509 63.5817 105.936C63.9551 105.349 64.5217 104.882 65.2817 104.536C66.0417 104.176 67.0151 103.996 68.2017 103.996C68.9884 103.996 69.7684 104.109 70.5417 104.336C71.3151 104.549 71.9817 104.849 72.5417 105.236L72.0417 106.416C71.4417 106.016 70.8017 105.722 70.1217 105.536C69.4551 105.349 68.8084 105.256 68.1817 105.256C67.3417 105.256 66.6484 105.369 66.1017 105.596C65.5551 105.822 65.1484 106.129 64.8817 106.516C64.6284 106.889 64.5017 107.316 64.5017 107.796C64.5017 108.342 64.6551 108.782 64.9617 109.116C65.2817 109.449 65.6951 109.709 66.2017 109.896C66.7217 110.082 67.2884 110.249 67.9017 110.396C68.5151 110.542 69.1217 110.702 69.7217 110.876C70.3351 111.049 70.8951 111.276 71.4017 111.556C71.9217 111.822 72.3351 112.182 72.6417 112.636C72.9617 113.089 73.1217 113.682 73.1217 114.416C73.1217 115.096 72.9351 115.729 72.5617 116.316C72.1884 116.889 71.6151 117.356 70.8417 117.716C70.0817 118.062 69.1017 118.236 67.9017 118.236ZM81.4664 118.216C80.5597 118.216 79.7397 118.009 79.0064 117.596C78.2731 117.169 77.6864 116.562 77.2464 115.776C76.8197 114.976 76.6064 114.002 76.6064 112.856C76.6064 111.709 76.8197 110.742 77.2464 109.956C77.6731 109.156 78.2531 108.549 78.9864 108.136C79.7197 107.722 80.5464 107.516 81.4664 107.516C82.4664 107.516 83.3597 107.742 84.1464 108.196C84.9464 108.636 85.5731 109.262 86.0264 110.076C86.4797 110.876 86.7064 111.802 86.7064 112.856C86.7064 113.922 86.4797 114.856 86.0264 115.656C85.5731 116.456 84.9464 117.082 84.1464 117.536C83.3597 117.989 82.4664 118.216 81.4664 118.216ZM76.0464 121.996V107.616H77.4064V110.776L77.2664 112.876L77.4664 114.996V121.996H76.0464ZM81.3664 116.956C82.1131 116.956 82.7797 116.789 83.3664 116.456C83.9531 116.109 84.4197 115.629 84.7664 115.016C85.1131 114.389 85.2864 113.669 85.2864 112.856C85.2864 112.042 85.1131 111.329 84.7664 110.716C84.4197 110.102 83.9531 109.622 83.3664 109.276C82.7797 108.929 82.1131 108.756 81.3664 108.756C80.6197 108.756 79.9464 108.929 79.3464 109.276C78.7597 109.622 78.2931 110.102 77.9464 110.716C77.6131 111.329 77.4464 112.042 77.4464 112.856C77.4464 113.669 77.6131 114.389 77.9464 115.016C78.2931 115.629 78.7597 116.109 79.3464 116.456C79.9464 116.789 80.6197 116.956 81.3664 116.956ZM94.0611 118.216C92.9678 118.216 92.0078 117.989 91.1811 117.536C90.3544 117.069 89.7078 116.436 89.2411 115.636C88.7744 114.822 88.5411 113.896 88.5411 112.856C88.5411 111.816 88.7611 110.896 89.2011 110.096C89.6544 109.296 90.2678 108.669 91.0411 108.216C91.8278 107.749 92.7078 107.516 93.6811 107.516C94.6678 107.516 95.5411 107.742 96.3011 108.196C97.0744 108.636 97.6811 109.262 98.1211 110.076C98.5611 110.876 98.7811 111.802 98.7811 112.856C98.7811 112.922 98.7744 112.996 98.7611 113.076C98.7611 113.142 98.7611 113.216 98.7611 113.296H89.6211V112.236H98.0011L97.4411 112.656C97.4411 111.896 97.2744 111.222 96.9411 110.636C96.6211 110.036 96.1811 109.569 95.6211 109.236C95.0611 108.902 94.4144 108.736 93.6811 108.736C92.9611 108.736 92.3144 108.902 91.7411 109.236C91.1678 109.569 90.7211 110.036 90.4011 110.636C90.0811 111.236 89.9211 111.922 89.9211 112.696V112.916C89.9211 113.716 90.0944 114.422 90.4411 115.036C90.8011 115.636 91.2944 116.109 91.9211 116.456C92.5611 116.789 93.2878 116.956 94.1011 116.956C94.7411 116.956 95.3344 116.842 95.8811 116.616C96.4411 116.389 96.9211 116.042 97.3211 115.576L98.1211 116.496C97.6544 117.056 97.0678 117.482 96.3611 117.776C95.6678 118.069 94.9011 118.216 94.0611 118.216ZM106.131 118.216C105.038 118.216 104.078 117.989 103.251 117.536C102.425 117.069 101.778 116.436 101.311 115.636C100.845 114.822 100.611 113.896 100.611 112.856C100.611 111.816 100.831 110.896 101.271 110.096C101.725 109.296 102.338 108.669 103.111 108.216C103.898 107.749 104.778 107.516 105.751 107.516C106.738 107.516 107.611 107.742 108.371 108.196C109.145 108.636 109.751 109.262 110.191 110.076C110.631 110.876 110.851 111.802 110.851 112.856C110.851 112.922 110.845 112.996 110.831 113.076C110.831 113.142 110.831 113.216 110.831 113.296H101.691V112.236H110.071L109.511 112.656C109.511 111.896 109.345 111.222 109.011 110.636C108.691 110.036 108.251 109.569 107.691 109.236C107.131 108.902 106.485 108.736 105.751 108.736C105.031 108.736 104.385 108.902 103.811 109.236C103.238 109.569 102.791 110.036 102.471 110.636C102.151 111.236 101.991 111.922 101.991 112.696V112.916C101.991 113.716 102.165 114.422 102.511 115.036C102.871 115.636 103.365 116.109 103.991 116.456C104.631 116.789 105.358 116.956 106.171 116.956C106.811 116.956 107.405 116.842 107.951 116.616C108.511 116.389 108.991 116.042 109.391 115.576L110.191 116.496C109.725 117.056 109.138 117.482 108.431 117.776C107.738 118.069 106.971 118.216 106.131 118.216ZM117.922 118.216C116.922 118.216 116.022 117.989 115.222 117.536C114.435 117.082 113.815 116.456 113.362 115.656C112.908 114.842 112.682 113.909 112.682 112.856C112.682 111.789 112.908 110.856 113.362 110.056C113.815 109.256 114.435 108.636 115.222 108.196C116.022 107.742 116.922 107.516 117.922 107.516C118.842 107.516 119.662 107.722 120.382 108.136C121.115 108.549 121.695 109.156 122.122 109.956C122.562 110.742 122.782 111.709 122.782 112.856C122.782 113.989 122.568 114.956 122.142 115.756C121.715 116.556 121.135 117.169 120.402 117.596C119.682 118.009 118.855 118.216 117.922 118.216ZM118.022 116.956C118.768 116.956 119.435 116.789 120.022 116.456C120.622 116.109 121.088 115.629 121.422 115.016C121.768 114.389 121.942 113.669 121.942 112.856C121.942 112.029 121.768 111.309 121.422 110.696C121.088 110.082 120.622 109.609 120.022 109.276C119.435 108.929 118.768 108.756 118.022 108.756C117.288 108.756 116.628 108.929 116.042 109.276C115.455 109.609 114.988 110.082 114.642 110.696C114.295 111.309 114.122 112.029 114.122 112.856C114.122 113.669 114.295 114.389 114.642 115.016C114.988 115.629 115.455 116.109 116.042 116.456C116.628 116.789 117.288 116.956 118.022 116.956ZM121.982 118.116V114.956L122.122 112.836L121.922 110.716V103.276H123.342V118.116H121.982ZM127.296 118.116V107.616H128.716V118.116H127.296ZM128.016 105.296C127.723 105.296 127.476 105.196 127.276 104.996C127.076 104.796 126.976 104.556 126.976 104.276C126.976 103.996 127.076 103.762 127.276 103.576C127.476 103.376 127.723 103.276 128.016 103.276C128.31 103.276 128.556 103.369 128.756 103.556C128.956 103.742 129.056 103.976 129.056 104.256C129.056 104.549 128.956 104.796 128.756 104.996C128.57 105.196 128.323 105.296 128.016 105.296ZM138.028 107.516C138.881 107.516 139.628 107.682 140.268 108.016C140.921 108.336 141.428 108.829 141.788 109.496C142.161 110.162 142.348 111.002 142.348 112.016V118.116H140.928V112.156C140.928 111.049 140.648 110.216 140.088 109.656C139.541 109.082 138.768 108.796 137.768 108.796C137.021 108.796 136.368 108.949 135.808 109.256C135.261 109.549 134.834 109.982 134.528 110.556C134.234 111.116 134.088 111.796 134.088 112.596V118.116H132.668V107.616H134.028V110.496L133.808 109.956C134.141 109.196 134.674 108.602 135.408 108.176C136.141 107.736 137.014 107.516 138.028 107.516ZM150.663 122.096C149.703 122.096 148.783 121.956 147.903 121.676C147.023 121.396 146.31 120.996 145.763 120.476L146.483 119.396C146.976 119.836 147.583 120.182 148.303 120.436C149.036 120.702 149.81 120.836 150.623 120.836C151.956 120.836 152.936 120.522 153.563 119.896C154.19 119.282 154.503 118.322 154.503 117.016V114.396L154.703 112.596L154.563 110.796V107.616H155.923V116.836C155.923 118.649 155.476 119.976 154.583 120.816C153.703 121.669 152.396 122.096 150.663 122.096ZM150.403 117.716C149.403 117.716 148.503 117.502 147.703 117.076C146.903 116.636 146.27 116.029 145.803 115.256C145.35 114.482 145.123 113.596 145.123 112.596C145.123 111.596 145.35 110.716 145.803 109.956C146.27 109.182 146.903 108.582 147.703 108.156C148.503 107.729 149.403 107.516 150.403 107.516C151.336 107.516 152.176 107.709 152.923 108.096C153.67 108.482 154.263 109.056 154.703 109.816C155.143 110.576 155.363 111.502 155.363 112.596C155.363 113.689 155.143 114.616 154.703 115.376C154.263 116.136 153.67 116.716 152.923 117.116C152.176 117.516 151.336 117.716 150.403 117.716ZM150.543 116.456C151.316 116.456 152.003 116.296 152.603 115.976C153.203 115.642 153.676 115.189 154.023 114.616C154.37 114.029 154.543 113.356 154.543 112.596C154.543 111.836 154.37 111.169 154.023 110.596C153.676 110.022 153.203 109.576 152.603 109.256C152.003 108.922 151.316 108.756 150.543 108.756C149.783 108.756 149.096 108.922 148.483 109.256C147.883 109.576 147.41 110.022 147.063 110.596C146.73 111.169 146.563 111.836 146.563 112.596C146.563 113.356 146.73 114.029 147.063 114.616C147.41 115.189 147.883 115.642 148.483 115.976C149.096 116.296 149.783 116.456 150.543 116.456Z" fill="#171846"/>
<path d="M48 0H119.075V71.0748H48V0Z" fill="white" fill-opacity="0.01"/>
<path d="M92.8625 27.8059C92.8625 27.8059 88.0808 41.2838 85.8086 43.6368C83.5363 45.99 79.7866 46.0554 77.4336 43.7831C75.0804 41.5108 75.015 37.7611 77.2873 35.4081C79.5596 33.0551 92.8625 27.8059 92.8625 27.8059Z" fill="#EC9E39" stroke="black" stroke-width="5" stroke-linejoin="round"/>
<path d="M105.525 57.525C111.152 51.8979 114.633 44.1241 114.633 35.5374C114.633 18.3639 100.711 4.44218 83.5376 4.44218C66.3642 4.44218 52.4424 18.3639 52.4424 35.5374C52.4424 44.1241 55.9228 51.8979 61.55 57.525" stroke="black" stroke-width="5" stroke-linecap="round" stroke-linejoin="round"/>
<path d="M83.5371 5.9229V11.8458" stroke="black" stroke-width="5" stroke-linecap="round" stroke-linejoin="round"/>
<path d="M105.518 16.4984L100.915 20.2257" stroke="black" stroke-width="5" stroke-linecap="round" stroke-linejoin="round"/>
<path d="M110.964 40.3243L105.193 38.9919" stroke="black" stroke-width="5" stroke-linecap="round" stroke-linejoin="round"/>
<path d="M56.1113 40.3243L61.8824 38.9919" stroke="black" stroke-width="5" stroke-linecap="round" stroke-linejoin="round"/>
<path d="M61.5557 16.4984L66.1586 20.2257" stroke="black" stroke-width="5" stroke-linecap="round" stroke-linejoin="round"/>
</svg>
