<svg width="167" height="161" viewBox="0 0 167 161" fill="none" xmlns="http://www.w3.org/2000/svg">
<g clip-path="url(#clip0_1347_606)">
<path d="M116.702 49.2214L97.3103 68.6647L69.85 68.7009L50.4067 49.3092L50.3704 21.8488L69.7621 2.40553L97.2225 2.36926L116.666 21.761L116.702 49.2214Z" fill="black"/>
<path d="M70.2503 3.58136L51.5489 22.3348L51.5848 48.8123L70.3393 67.5221L96.8158 67.478L115.526 48.7235L115.482 22.247L96.7281 3.54564L70.2506 3.58159L70.2503 3.58136Z" fill="white"/>
<path d="M70.6919 4.65118L52.6201 22.7733L52.6551 48.3711L70.7783 66.451L96.375 66.4076L114.455 48.2845L114.412 22.6877L96.2894 4.61596L70.6916 4.65095L70.6919 4.65118Z" fill="black"/>
<path d="M98.3869 24.8588H103.979C105.491 24.8588 106.652 24.9775 107.461 25.2149C108.278 25.4523 108.889 25.7952 109.294 26.2436C109.707 26.6921 109.984 27.2372 110.125 27.879C110.274 28.5121 110.349 29.4968 110.349 30.8332V32.6928C110.349 34.0556 110.208 35.0492 109.927 35.6733C109.645 36.2976 109.127 36.7768 108.371 37.1109C107.623 37.445 106.643 37.6121 105.43 37.6121H103.939V46.2109H98.3867L98.3869 24.8588ZM103.939 28.5117V33.9455C104.098 33.9543 104.234 33.9587 104.348 33.9587C104.858 33.9587 105.21 33.8356 105.403 33.5894C105.605 33.3344 105.707 32.8113 105.707 32.02V30.2659C105.707 29.5361 105.592 29.0613 105.364 28.8415C105.135 28.6217 104.66 28.5118 103.939 28.5117ZM96.3031 37.3612C96.3031 39.5066 96.2503 41.0275 96.1449 41.9244C96.0481 42.8125 95.7316 43.6258 95.1953 44.3643C94.6677 45.1029 93.9512 45.67 93.0455 46.0657C92.1399 46.4613 91.0848 46.6591 89.8802 46.6591C88.7372 46.6591 87.7085 46.4745 86.7941 46.1052C85.8885 45.7271 85.1587 45.1644 84.6048 44.4171C84.0509 43.6697 83.7212 42.8564 83.6157 41.9772C83.5102 41.0979 83.4574 39.5593 83.4574 37.3611V33.7079C83.4574 31.5626 83.5058 30.0458 83.6025 29.1579C83.708 28.2611 84.0245 27.4434 84.5521 26.7048C85.0884 25.9662 85.8094 25.3991 86.715 25.0035C87.6206 24.6078 88.6757 24.41 89.8803 24.41C91.0233 24.41 92.0476 24.5991 92.9532 24.9771C93.8676 25.3464 94.6018 25.9047 95.1557 26.652C95.7096 27.3994 96.0394 28.2127 96.1449 29.0919C96.2504 29.9712 96.3031 31.5098 96.3031 33.7081L96.3031 37.3612ZM90.7506 30.3448C90.7506 29.3512 90.6935 28.7182 90.5792 28.4456C90.4737 28.1643 90.2495 28.0236 89.9066 28.0236C89.6164 28.0236 89.3922 28.1379 89.234 28.3665C89.0845 28.5863 89.0098 29.2457 89.0098 30.3448V40.3154C89.0098 41.5551 89.0581 42.3201 89.1548 42.6102C89.2603 42.9004 89.4977 43.0454 89.867 43.0454C90.2451 43.0454 90.4869 42.8784 90.5924 42.5443C90.6979 42.2102 90.7506 41.4145 90.7506 40.1571L90.7506 30.3448ZM82.3495 24.8585V29.1316H79.0523V46.2109H73.4998V29.1316H70.2157V24.8585H82.3495ZM68.9497 31.3208H63.7929V29.7382C63.7929 28.9997 63.727 28.5293 63.5951 28.327C63.4632 28.1248 63.2434 28.0237 62.9357 28.0237C62.6015 28.0237 62.3466 28.16 62.1707 28.4325C62.0037 28.7051 61.9201 29.1184 61.9201 29.6723C61.9201 30.3845 62.0169 30.9208 62.2103 31.2813C62.3949 31.6418 62.9181 32.077 63.7798 32.5869C66.2504 34.0553 67.8067 35.2597 68.4485 36.2006C69.0904 37.1414 69.4113 38.6581 69.4113 40.7506C69.4113 42.2717 69.231 43.3926 68.8706 44.1137C68.5189 44.8346 67.833 45.4413 66.8131 45.9337C65.7932 46.4173 64.6063 46.659 63.2521 46.659C61.7662 46.659 60.4956 46.3777 59.4405 45.815C58.3942 45.2523 57.7084 44.5357 57.3831 43.6652C57.0578 42.7948 56.8951 41.5595 56.8951 39.9592V38.5612H62.052V41.1594C62.0519 41.9595 62.1223 42.4738 62.263 42.7024C62.4124 42.931 62.6718 43.0453 63.0411 43.0453C63.4104 43.0453 63.6829 42.9003 63.8588 42.6101C64.0434 42.32 64.1357 41.8891 64.1357 41.3176C64.1357 40.0603 63.9643 39.2382 63.6214 38.8514C63.2697 38.4645 62.4037 37.8182 61.0232 36.9126C59.6428 35.9982 58.7284 35.3344 58.2799 34.9212C57.8315 34.5079 57.4578 33.9364 57.1589 33.2067C56.8687 32.4769 56.7236 31.5449 56.7236 30.4107C56.7236 28.7753 56.9303 27.5797 57.3435 26.8233C57.7655 26.0672 58.4425 25.4781 59.3745 25.0561C60.3065 24.6253 61.4319 24.4099 62.7507 24.4099C64.1927 24.4099 65.4193 24.6429 66.4305 25.1088C67.4504 25.5748 68.123 26.1639 68.4483 26.8761C68.7824 27.5795 68.9495 28.7797 68.9495 30.4766V31.3206" fill="white"/>
</g>
<path d="M41.0365 151.12C39.9965 151.12 38.9965 150.953 38.0365 150.62C37.0898 150.273 36.3565 149.833 35.8365 149.3L36.4165 148.16C36.9098 148.64 37.5698 149.047 38.3965 149.38C39.2365 149.7 40.1165 149.86 41.0365 149.86C41.9165 149.86 42.6298 149.753 43.1765 149.54C43.7365 149.313 44.1432 149.013 44.3965 148.64C44.6632 148.267 44.7965 147.853 44.7965 147.4C44.7965 146.853 44.6365 146.413 44.3165 146.08C44.0098 145.747 43.6032 145.487 43.0965 145.3C42.5898 145.1 42.0298 144.927 41.4165 144.78C40.8032 144.633 40.1898 144.48 39.5765 144.32C38.9632 144.147 38.3965 143.92 37.8765 143.64C37.3698 143.36 36.9565 142.993 36.6365 142.54C36.3298 142.073 36.1765 141.467 36.1765 140.72C36.1765 140.027 36.3565 139.393 36.7165 138.82C37.0898 138.233 37.6565 137.767 38.4165 137.42C39.1765 137.06 40.1498 136.88 41.3365 136.88C42.1232 136.88 42.9032 136.993 43.6765 137.22C44.4498 137.433 45.1165 137.733 45.6765 138.12L45.1765 139.3C44.5765 138.9 43.9365 138.607 43.2565 138.42C42.5898 138.233 41.9432 138.14 41.3165 138.14C40.4765 138.14 39.7832 138.253 39.2365 138.48C38.6898 138.707 38.2832 139.013 38.0165 139.4C37.7632 139.773 37.6365 140.2 37.6365 140.68C37.6365 141.227 37.7898 141.667 38.0965 142C38.4165 142.333 38.8298 142.593 39.3365 142.78C39.8565 142.967 40.4232 143.133 41.0365 143.28C41.6498 143.427 42.2565 143.587 42.8565 143.76C43.4698 143.933 44.0298 144.16 44.5365 144.44C45.0565 144.707 45.4698 145.067 45.7765 145.52C46.0965 145.973 46.2565 146.567 46.2565 147.3C46.2565 147.98 46.0698 148.613 45.6965 149.2C45.3232 149.773 44.7498 150.24 43.9765 150.6C43.2165 150.947 42.2365 151.12 41.0365 151.12ZM52.5012 151.1C51.5145 151.1 50.7545 150.833 50.2212 150.3C49.6878 149.767 49.4212 149.013 49.4212 148.04V138.18H50.8412V147.96C50.8412 148.573 50.9945 149.047 51.3012 149.38C51.6212 149.713 52.0745 149.88 52.6612 149.88C53.2878 149.88 53.8078 149.7 54.2212 149.34L54.7212 150.36C54.4412 150.613 54.1012 150.8 53.7012 150.92C53.3145 151.04 52.9145 151.1 52.5012 151.1ZM47.5412 141.68V140.5H54.0412V141.68H47.5412ZM61.2151 151.1C60.2017 151.1 59.2884 150.873 58.4751 150.42C57.6751 149.953 57.0417 149.32 56.5751 148.52C56.1084 147.707 55.8751 146.78 55.8751 145.74C55.8751 144.687 56.1084 143.76 56.5751 142.96C57.0417 142.16 57.6751 141.533 58.4751 141.08C59.2751 140.627 60.1884 140.4 61.2151 140.4C62.2551 140.4 63.1751 140.627 63.9751 141.08C64.7884 141.533 65.4217 142.16 65.8751 142.96C66.3417 143.76 66.5751 144.687 66.5751 145.74C66.5751 146.78 66.3417 147.707 65.8751 148.52C65.4217 149.32 64.7884 149.953 63.9751 150.42C63.1617 150.873 62.2417 151.1 61.2151 151.1ZM61.2151 149.84C61.9751 149.84 62.6484 149.673 63.2351 149.34C63.8217 148.993 64.2817 148.513 64.6151 147.9C64.9617 147.273 65.1351 146.553 65.1351 145.74C65.1351 144.913 64.9617 144.193 64.6151 143.58C64.2817 142.967 63.8217 142.493 63.2351 142.16C62.6484 141.813 61.9817 141.64 61.2351 141.64C60.4884 141.64 59.8217 141.813 59.2351 142.16C58.6484 142.493 58.1817 142.967 57.8351 143.58C57.4884 144.193 57.3151 144.913 57.3151 145.74C57.3151 146.553 57.4884 147.273 57.8351 147.9C58.1817 148.513 58.6484 148.993 59.2351 149.34C59.8217 149.673 60.4817 149.84 61.2151 149.84ZM74.8941 151.1C73.9875 151.1 73.1675 150.893 72.4341 150.48C71.7008 150.053 71.1141 149.447 70.6741 148.66C70.2475 147.86 70.0341 146.887 70.0341 145.74C70.0341 144.593 70.2475 143.627 70.6741 142.84C71.1008 142.04 71.6808 141.433 72.4141 141.02C73.1475 140.607 73.9741 140.4 74.8941 140.4C75.8941 140.4 76.7875 140.627 77.5741 141.08C78.3741 141.52 79.0008 142.147 79.4541 142.96C79.9075 143.76 80.1341 144.687 80.1341 145.74C80.1341 146.807 79.9075 147.74 79.4541 148.54C79.0008 149.34 78.3741 149.967 77.5741 150.42C76.7875 150.873 75.8941 151.1 74.8941 151.1ZM69.4741 154.88V140.5H70.8341V143.66L70.6941 145.76L70.8941 147.88V154.88H69.4741ZM74.7941 149.84C75.5408 149.84 76.2075 149.673 76.7941 149.34C77.3808 148.993 77.8475 148.513 78.1941 147.9C78.5408 147.273 78.7141 146.553 78.7141 145.74C78.7141 144.927 78.5408 144.213 78.1941 143.6C77.8475 142.987 77.3808 142.507 76.7941 142.16C76.2075 141.813 75.5408 141.64 74.7941 141.64C74.0475 141.64 73.3741 141.813 72.7741 142.16C72.1875 142.507 71.7208 142.987 71.3741 143.6C71.0408 144.213 70.8741 144.927 70.8741 145.74C70.8741 146.553 71.0408 147.273 71.3741 147.9C71.7208 148.513 72.1875 148.993 72.7741 149.34C73.3741 149.673 74.0475 149.84 74.7941 149.84ZM88.4488 151.1C87.5422 151.1 86.7222 150.893 85.9888 150.48C85.2555 150.053 84.6688 149.447 84.2288 148.66C83.8022 147.86 83.5888 146.887 83.5888 145.74C83.5888 144.593 83.8022 143.627 84.2288 142.84C84.6555 142.04 85.2355 141.433 85.9688 141.02C86.7022 140.607 87.5288 140.4 88.4488 140.4C89.4488 140.4 90.3422 140.627 91.1288 141.08C91.9288 141.52 92.5555 142.147 93.0088 142.96C93.4622 143.76 93.6888 144.687 93.6888 145.74C93.6888 146.807 93.4622 147.74 93.0088 148.54C92.5555 149.34 91.9288 149.967 91.1288 150.42C90.3422 150.873 89.4488 151.1 88.4488 151.1ZM83.0288 154.88V140.5H84.3888V143.66L84.2488 145.76L84.4488 147.88V154.88H83.0288ZM88.3488 149.84C89.0955 149.84 89.7622 149.673 90.3488 149.34C90.9355 148.993 91.4022 148.513 91.7488 147.9C92.0955 147.273 92.2688 146.553 92.2688 145.74C92.2688 144.927 92.0955 144.213 91.7488 143.6C91.4022 142.987 90.9355 142.507 90.3488 142.16C89.7622 141.813 89.0955 141.64 88.3488 141.64C87.6022 141.64 86.9288 141.813 86.3288 142.16C85.7422 142.507 85.2755 142.987 84.9288 143.6C84.5955 144.213 84.4288 144.927 84.4288 145.74C84.4288 146.553 84.5955 147.273 84.9288 147.9C85.2755 148.513 85.7422 148.993 86.3288 149.34C86.9288 149.673 87.6022 149.84 88.3488 149.84ZM103.105 151V148.68L103.045 148.3V144.42C103.045 143.527 102.792 142.84 102.285 142.36C101.792 141.88 101.052 141.64 100.065 141.64C99.3849 141.64 98.7383 141.753 98.1249 141.98C97.5116 142.207 96.9916 142.507 96.5649 142.88L95.9249 141.82C96.4583 141.367 97.0983 141.02 97.8449 140.78C98.5916 140.527 99.3783 140.4 100.205 140.4C101.565 140.4 102.612 140.74 103.345 141.42C104.092 142.087 104.465 143.107 104.465 144.48V151H103.105ZM99.4849 151.1C98.6983 151.1 98.0116 150.973 97.4249 150.72C96.8516 150.453 96.4116 150.093 96.1049 149.64C95.7983 149.173 95.6449 148.64 95.6449 148.04C95.6449 147.493 95.7716 147 96.0249 146.56C96.2916 146.107 96.7183 145.747 97.3049 145.48C97.9049 145.2 98.7049 145.06 99.7049 145.06H103.325V146.12H99.7449C98.7316 146.12 98.0249 146.3 97.6249 146.66C97.2383 147.02 97.0449 147.467 97.0449 148C97.0449 148.6 97.2783 149.08 97.7449 149.44C98.2116 149.8 98.8649 149.98 99.7049 149.98C100.505 149.98 101.192 149.8 101.765 149.44C102.352 149.067 102.778 148.533 103.045 147.84L103.365 148.82C103.098 149.513 102.632 150.067 101.965 150.48C101.312 150.893 100.485 151.1 99.4849 151.1ZM112.802 154.98C111.842 154.98 110.922 154.84 110.042 154.56C109.162 154.28 108.448 153.88 107.902 153.36L108.622 152.28C109.115 152.72 109.722 153.067 110.442 153.32C111.175 153.587 111.948 153.72 112.762 153.72C114.095 153.72 115.075 153.407 115.702 152.78C116.328 152.167 116.642 151.207 116.642 149.9V147.28L116.842 145.48L116.702 143.68V140.5H118.062V149.72C118.062 151.533 117.615 152.86 116.722 153.7C115.842 154.553 114.535 154.98 112.802 154.98ZM112.542 150.6C111.542 150.6 110.642 150.387 109.842 149.96C109.042 149.52 108.408 148.913 107.942 148.14C107.488 147.367 107.262 146.48 107.262 145.48C107.262 144.48 107.488 143.6 107.942 142.84C108.408 142.067 109.042 141.467 109.842 141.04C110.642 140.613 111.542 140.4 112.542 140.4C113.475 140.4 114.315 140.593 115.062 140.98C115.808 141.367 116.402 141.94 116.842 142.7C117.282 143.46 117.502 144.387 117.502 145.48C117.502 146.573 117.282 147.5 116.842 148.26C116.402 149.02 115.808 149.6 115.062 150C114.315 150.4 113.475 150.6 112.542 150.6ZM112.682 149.34C113.455 149.34 114.142 149.18 114.742 148.86C115.342 148.527 115.815 148.073 116.162 147.5C116.508 146.913 116.682 146.24 116.682 145.48C116.682 144.72 116.508 144.053 116.162 143.48C115.815 142.907 115.342 142.46 114.742 142.14C114.142 141.807 113.455 141.64 112.682 141.64C111.922 141.64 111.235 141.807 110.622 142.14C110.022 142.46 109.548 142.907 109.202 143.48C108.868 144.053 108.702 144.72 108.702 145.48C108.702 146.24 108.868 146.913 109.202 147.5C109.548 148.073 110.022 148.527 110.622 148.86C111.235 149.18 111.922 149.34 112.682 149.34ZM126.473 151.1C125.38 151.1 124.42 150.873 123.593 150.42C122.767 149.953 122.12 149.32 121.653 148.52C121.187 147.707 120.953 146.78 120.953 145.74C120.953 144.7 121.173 143.78 121.613 142.98C122.067 142.18 122.68 141.553 123.453 141.1C124.24 140.633 125.12 140.4 126.093 140.4C127.08 140.4 127.953 140.627 128.713 141.08C129.487 141.52 130.093 142.147 130.533 142.96C130.973 143.76 131.193 144.687 131.193 145.74C131.193 145.807 131.187 145.88 131.173 145.96C131.173 146.027 131.173 146.1 131.173 146.18H122.033V145.12H130.413L129.853 145.54C129.853 144.78 129.687 144.107 129.353 143.52C129.033 142.92 128.593 142.453 128.033 142.12C127.473 141.787 126.827 141.62 126.093 141.62C125.373 141.62 124.727 141.787 124.153 142.12C123.58 142.453 123.133 142.92 122.813 143.52C122.493 144.12 122.333 144.807 122.333 145.58V145.8C122.333 146.6 122.507 147.307 122.853 147.92C123.213 148.52 123.707 148.993 124.333 149.34C124.973 149.673 125.7 149.84 126.513 149.84C127.153 149.84 127.747 149.727 128.293 149.5C128.853 149.273 129.333 148.927 129.733 148.46L130.533 149.38C130.067 149.94 129.48 150.367 128.773 150.66C128.08 150.953 127.313 151.1 126.473 151.1Z" fill="#171846"/>
<defs>
<clipPath id="clip0_1347_606">
<rect width="71.07" height="71.07" fill="white" transform="translate(48)"/>
</clipPath>
</defs>
</svg>
