<svg width="246" height="139" viewBox="0 0 246 139" fill="none" xmlns="http://www.w3.org/2000/svg">
<path d="M9.32812 129V116.28H4.40813V115H15.7281V116.28H10.8081V129H9.32812ZM17.5191 129V118.5H18.8791V121.36L18.7391 120.86C19.0324 120.06 19.5257 119.453 20.2191 119.04C20.9124 118.613 21.7724 118.4 22.7991 118.4V119.78C22.7457 119.78 22.6924 119.78 22.6391 119.78C22.5857 119.767 22.5324 119.76 22.4791 119.76C21.3724 119.76 20.5057 120.1 19.8791 120.78C19.2524 121.447 18.9391 122.4 18.9391 123.64V129H17.5191ZM31.1889 129V126.68L31.1289 126.3V122.42C31.1289 121.527 30.8756 120.84 30.3689 120.36C29.8756 119.88 29.1356 119.64 28.1489 119.64C27.4689 119.64 26.8222 119.753 26.2089 119.98C25.5956 120.207 25.0756 120.507 24.6489 120.88L24.0089 119.82C24.5422 119.367 25.1822 119.02 25.9289 118.78C26.6756 118.527 27.4622 118.4 28.2889 118.4C29.6489 118.4 30.6956 118.74 31.4289 119.42C32.1756 120.087 32.5489 121.107 32.5489 122.48V129H31.1889ZM27.5689 129.1C26.7822 129.1 26.0956 128.973 25.5089 128.72C24.9356 128.453 24.4956 128.093 24.1889 127.64C23.8822 127.173 23.7289 126.64 23.7289 126.04C23.7289 125.493 23.8556 125 24.1089 124.56C24.3756 124.107 24.8022 123.747 25.3889 123.48C25.9889 123.2 26.7889 123.06 27.7889 123.06H31.4089V124.12H27.8289C26.8156 124.12 26.1089 124.3 25.7089 124.66C25.3222 125.02 25.1289 125.467 25.1289 126C25.1289 126.6 25.3622 127.08 25.8289 127.44C26.2956 127.8 26.9489 127.98 27.7889 127.98C28.5889 127.98 29.2756 127.8 29.8489 127.44C30.4356 127.067 30.8622 126.533 31.1289 125.84L31.4489 126.82C31.1822 127.513 30.7156 128.067 30.0489 128.48C29.3956 128.893 28.5689 129.1 27.5689 129.1ZM41.7658 118.4C42.6191 118.4 43.3658 118.567 44.0058 118.9C44.6591 119.22 45.1658 119.713 45.5258 120.38C45.8991 121.047 46.0858 121.887 46.0858 122.9V129H44.6658V123.04C44.6658 121.933 44.3858 121.1 43.8258 120.54C43.2791 119.967 42.5058 119.68 41.5058 119.68C40.7591 119.68 40.1058 119.833 39.5458 120.14C38.9991 120.433 38.5724 120.867 38.2658 121.44C37.9724 122 37.8258 122.68 37.8258 123.48V129H36.4058V118.5H37.7658V121.38L37.5458 120.84C37.8791 120.08 38.4124 119.487 39.1458 119.06C39.8791 118.62 40.7524 118.4 41.7658 118.4ZM52.7414 129.1C51.8747 129.1 51.0547 128.98 50.2814 128.74C49.5081 128.487 48.9014 128.173 48.4614 127.8L49.1014 126.68C49.5281 127 50.0747 127.28 50.7414 127.52C51.4081 127.747 52.1081 127.86 52.8414 127.86C53.8414 127.86 54.5614 127.707 55.0014 127.4C55.4414 127.08 55.6614 126.66 55.6614 126.14C55.6614 125.753 55.5347 125.453 55.2814 125.24C55.0414 125.013 54.7214 124.847 54.3214 124.74C53.9214 124.62 53.4747 124.52 52.9814 124.44C52.4881 124.36 51.9947 124.267 51.5014 124.16C51.0214 124.053 50.5814 123.9 50.1814 123.7C49.7814 123.487 49.4547 123.2 49.2014 122.84C48.9614 122.48 48.8414 122 48.8414 121.4C48.8414 120.827 49.0014 120.313 49.3214 119.86C49.6414 119.407 50.1081 119.053 50.7214 118.8C51.3481 118.533 52.1081 118.4 53.0014 118.4C53.6814 118.4 54.3614 118.493 55.0414 118.68C55.7214 118.853 56.2814 119.087 56.7214 119.38L56.1014 120.52C55.6347 120.2 55.1347 119.973 54.6014 119.84C54.0681 119.693 53.5347 119.62 53.0014 119.62C52.0547 119.62 51.3547 119.787 50.9014 120.12C50.4614 120.44 50.2414 120.853 50.2414 121.36C50.2414 121.76 50.3614 122.073 50.6014 122.3C50.8547 122.527 51.1814 122.707 51.5814 122.84C51.9947 122.96 52.4414 123.06 52.9214 123.14C53.4147 123.22 53.9014 123.32 54.3814 123.44C54.8747 123.547 55.3214 123.7 55.7214 123.9C56.1347 124.087 56.4614 124.36 56.7014 124.72C56.9547 125.067 57.0814 125.527 57.0814 126.1C57.0814 126.713 56.9081 127.247 56.5614 127.7C56.2281 128.14 55.7347 128.487 55.0814 128.74C54.4414 128.98 53.6614 129.1 52.7414 129.1ZM72.807 118.4C73.6604 118.4 74.4004 118.567 75.027 118.9C75.667 119.22 76.1604 119.713 76.507 120.38C76.867 121.047 77.047 121.887 77.047 122.9V129H75.627V123.04C75.627 121.933 75.3604 121.1 74.827 120.54C74.307 119.967 73.567 119.68 72.607 119.68C71.887 119.68 71.2604 119.833 70.727 120.14C70.207 120.433 69.8004 120.867 69.507 121.44C69.227 122 69.087 122.68 69.087 123.48V129H67.667V123.04C67.667 121.933 67.4004 121.1 66.867 120.54C66.3337 119.967 65.587 119.68 64.627 119.68C63.9204 119.68 63.3004 119.833 62.767 120.14C62.2337 120.433 61.8204 120.867 61.527 121.44C61.247 122 61.107 122.68 61.107 123.48V129H59.687V118.5H61.047V121.34L60.827 120.84C61.147 120.08 61.6604 119.487 62.367 119.06C63.087 118.62 63.9337 118.4 64.907 118.4C65.9337 118.4 66.807 118.66 67.527 119.18C68.247 119.687 68.7137 120.453 68.927 121.48L68.367 121.26C68.6737 120.407 69.2137 119.72 69.987 119.2C70.7737 118.667 71.7137 118.4 72.807 118.4ZM80.898 129V118.5H82.318V129H80.898ZM81.618 116.18C81.3246 116.18 81.078 116.08 80.878 115.88C80.678 115.68 80.578 115.44 80.578 115.16C80.578 114.88 80.678 114.647 80.878 114.46C81.078 114.26 81.3246 114.16 81.618 114.16C81.9113 114.16 82.158 114.253 82.358 114.44C82.558 114.627 82.658 114.86 82.658 115.14C82.658 115.433 82.558 115.68 82.358 115.88C82.1713 116.08 81.9246 116.18 81.618 116.18ZM89.0891 129.1C88.2224 129.1 87.4024 128.98 86.6291 128.74C85.8557 128.487 85.2491 128.173 84.8091 127.8L85.4491 126.68C85.8757 127 86.4224 127.28 87.0891 127.52C87.7557 127.747 88.4557 127.86 89.1891 127.86C90.1891 127.86 90.9091 127.707 91.3491 127.4C91.7891 127.08 92.0091 126.66 92.0091 126.14C92.0091 125.753 91.8824 125.453 91.6291 125.24C91.3891 125.013 91.0691 124.847 90.6691 124.74C90.2691 124.62 89.8224 124.52 89.3291 124.44C88.8357 124.36 88.3424 124.267 87.8491 124.16C87.3691 124.053 86.9291 123.9 86.5291 123.7C86.1291 123.487 85.8024 123.2 85.5491 122.84C85.3091 122.48 85.1891 122 85.1891 121.4C85.1891 120.827 85.3491 120.313 85.6691 119.86C85.9891 119.407 86.4557 119.053 87.0691 118.8C87.6957 118.533 88.4557 118.4 89.3491 118.4C90.0291 118.4 90.7091 118.493 91.3891 118.68C92.0691 118.853 92.6291 119.087 93.0691 119.38L92.4491 120.52C91.9824 120.2 91.4824 119.973 90.9491 119.84C90.4157 119.693 89.8824 119.62 89.3491 119.62C88.4024 119.62 87.7024 119.787 87.2491 120.12C86.8091 120.44 86.5891 120.853 86.5891 121.36C86.5891 121.76 86.7091 122.073 86.9491 122.3C87.2024 122.527 87.5291 122.707 87.9291 122.84C88.3424 122.96 88.7891 123.06 89.2691 123.14C89.7624 123.22 90.2491 123.32 90.7291 123.44C91.2224 123.547 91.6691 123.7 92.0691 123.9C92.4824 124.087 92.8091 124.36 93.0491 124.72C93.3024 125.067 93.4291 125.527 93.4291 126.1C93.4291 126.713 93.2557 127.247 92.9091 127.7C92.5757 128.14 92.0824 128.487 91.4291 128.74C90.7891 128.98 90.0091 129.1 89.0891 129.1ZM98.8547 129.1C97.988 129.1 97.168 128.98 96.3947 128.74C95.6214 128.487 95.0147 128.173 94.5747 127.8L95.2147 126.68C95.6414 127 96.188 127.28 96.8547 127.52C97.5214 127.747 98.2214 127.86 98.9547 127.86C99.9547 127.86 100.675 127.707 101.115 127.4C101.555 127.08 101.775 126.66 101.775 126.14C101.775 125.753 101.648 125.453 101.395 125.24C101.155 125.013 100.835 124.847 100.435 124.74C100.035 124.62 99.588 124.52 99.0947 124.44C98.6014 124.36 98.108 124.267 97.6147 124.16C97.1347 124.053 96.6947 123.9 96.2947 123.7C95.8947 123.487 95.568 123.2 95.3147 122.84C95.0747 122.48 94.9547 122 94.9547 121.4C94.9547 120.827 95.1147 120.313 95.4347 119.86C95.7547 119.407 96.2214 119.053 96.8347 118.8C97.4614 118.533 98.2214 118.4 99.1147 118.4C99.7947 118.4 100.475 118.493 101.155 118.68C101.835 118.853 102.395 119.087 102.835 119.38L102.215 120.52C101.748 120.2 101.248 119.973 100.715 119.84C100.181 119.693 99.648 119.62 99.1147 119.62C98.168 119.62 97.468 119.787 97.0147 120.12C96.5747 120.44 96.3547 120.853 96.3547 121.36C96.3547 121.76 96.4747 122.073 96.7147 122.3C96.968 122.527 97.2947 122.707 97.6947 122.84C98.108 122.96 98.5547 123.06 99.0347 123.14C99.528 123.22 100.015 123.32 100.495 123.44C100.988 123.547 101.435 123.7 101.835 123.9C102.248 124.087 102.575 124.36 102.815 124.72C103.068 125.067 103.195 125.527 103.195 126.1C103.195 126.713 103.021 127.247 102.675 127.7C102.341 128.14 101.848 128.487 101.195 128.74C100.555 128.98 99.7747 129.1 98.8547 129.1ZM105.8 129V118.5H107.22V129H105.8ZM106.52 116.18C106.227 116.18 105.98 116.08 105.78 115.88C105.58 115.68 105.48 115.44 105.48 115.16C105.48 114.88 105.58 114.647 105.78 114.46C105.98 114.26 106.227 114.16 106.52 114.16C106.814 114.16 107.06 114.253 107.26 114.44C107.46 114.627 107.56 114.86 107.56 115.14C107.56 115.433 107.46 115.68 107.26 115.88C107.074 116.08 106.827 116.18 106.52 116.18ZM115.451 129.1C114.438 129.1 113.525 128.873 112.711 128.42C111.911 127.953 111.278 127.32 110.811 126.52C110.345 125.707 110.111 124.78 110.111 123.74C110.111 122.687 110.345 121.76 110.811 120.96C111.278 120.16 111.911 119.533 112.711 119.08C113.511 118.627 114.425 118.4 115.451 118.4C116.491 118.4 117.411 118.627 118.211 119.08C119.025 119.533 119.658 120.16 120.111 120.96C120.578 121.76 120.811 122.687 120.811 123.74C120.811 124.78 120.578 125.707 120.111 126.52C119.658 127.32 119.025 127.953 118.211 128.42C117.398 128.873 116.478 129.1 115.451 129.1ZM115.451 127.84C116.211 127.84 116.885 127.673 117.471 127.34C118.058 126.993 118.518 126.513 118.851 125.9C119.198 125.273 119.371 124.553 119.371 123.74C119.371 122.913 119.198 122.193 118.851 121.58C118.518 120.967 118.058 120.493 117.471 120.16C116.885 119.813 116.218 119.64 115.471 119.64C114.725 119.64 114.058 119.813 113.471 120.16C112.885 120.493 112.418 120.967 112.071 121.58C111.725 122.193 111.551 122.913 111.551 123.74C111.551 124.553 111.725 125.273 112.071 125.9C112.418 126.513 112.885 126.993 113.471 127.34C114.058 127.673 114.718 127.84 115.451 127.84ZM129.07 118.4C129.924 118.4 130.67 118.567 131.31 118.9C131.964 119.22 132.47 119.713 132.83 120.38C133.204 121.047 133.39 121.887 133.39 122.9V129H131.97V123.04C131.97 121.933 131.69 121.1 131.13 120.54C130.584 119.967 129.81 119.68 128.81 119.68C128.064 119.68 127.41 119.833 126.85 120.14C126.304 120.433 125.877 120.867 125.57 121.44C125.277 122 125.13 122.68 125.13 123.48V129H123.71V118.5H125.07V121.38L124.85 120.84C125.184 120.08 125.717 119.487 126.45 119.06C127.184 118.62 128.057 118.4 129.07 118.4ZM148.4 129.12C146.614 129.12 145.207 128.607 144.18 127.58C143.154 126.553 142.64 125.033 142.64 123.02V115H144.12V122.96C144.12 124.613 144.494 125.833 145.24 126.62C145.987 127.407 147.04 127.8 148.4 127.8C149.774 127.8 150.834 127.407 151.58 126.62C152.327 125.833 152.7 124.613 152.7 122.96V115H154.14V123.02C154.14 125.033 153.627 126.553 152.6 127.58C151.587 128.607 150.187 129.12 148.4 129.12ZM161.62 129.1C160.634 129.1 159.874 128.833 159.34 128.3C158.807 127.767 158.54 127.013 158.54 126.04V116.18H159.96V125.96C159.96 126.573 160.114 127.047 160.42 127.38C160.74 127.713 161.194 127.88 161.78 127.88C162.407 127.88 162.927 127.7 163.34 127.34L163.84 128.36C163.56 128.613 163.22 128.8 162.82 128.92C162.434 129.04 162.034 129.1 161.62 129.1ZM156.66 119.68V118.5H163.16V119.68H156.66ZM166.425 129V118.5H167.845V129H166.425ZM167.145 116.18C166.852 116.18 166.605 116.08 166.405 115.88C166.205 115.68 166.105 115.44 166.105 115.16C166.105 114.88 166.205 114.647 166.405 114.46C166.605 114.26 166.852 114.16 167.145 114.16C167.439 114.16 167.685 114.253 167.885 114.44C168.085 114.627 168.185 114.86 168.185 115.14C168.185 115.433 168.085 115.68 167.885 115.88C167.699 116.08 167.452 116.18 167.145 116.18ZM171.796 129V114.16H173.216V129H171.796ZM177.168 129V118.5H178.588V129H177.168ZM177.888 116.18C177.594 116.18 177.348 116.08 177.148 115.88C176.948 115.68 176.848 115.44 176.848 115.16C176.848 114.88 176.948 114.647 177.148 114.46C177.348 114.26 177.594 114.16 177.888 114.16C178.181 114.16 178.428 114.253 178.628 114.44C178.828 114.627 178.928 114.86 178.928 115.14C178.928 115.433 178.828 115.68 178.628 115.88C178.441 116.08 178.194 116.18 177.888 116.18ZM185.359 129.1C184.492 129.1 183.672 128.98 182.899 128.74C182.125 128.487 181.519 128.173 181.079 127.8L181.719 126.68C182.145 127 182.692 127.28 183.359 127.52C184.025 127.747 184.725 127.86 185.459 127.86C186.459 127.86 187.179 127.707 187.619 127.4C188.059 127.08 188.279 126.66 188.279 126.14C188.279 125.753 188.152 125.453 187.899 125.24C187.659 125.013 187.339 124.847 186.939 124.74C186.539 124.62 186.092 124.52 185.599 124.44C185.105 124.36 184.612 124.267 184.119 124.16C183.639 124.053 183.199 123.9 182.799 123.7C182.399 123.487 182.072 123.2 181.819 122.84C181.579 122.48 181.459 122 181.459 121.4C181.459 120.827 181.619 120.313 181.939 119.86C182.259 119.407 182.725 119.053 183.339 118.8C183.965 118.533 184.725 118.4 185.619 118.4C186.299 118.4 186.979 118.493 187.659 118.68C188.339 118.853 188.899 119.087 189.339 119.38L188.719 120.52C188.252 120.2 187.752 119.973 187.219 119.84C186.685 119.693 186.152 119.62 185.619 119.62C184.672 119.62 183.972 119.787 183.519 120.12C183.079 120.44 182.859 120.853 182.859 121.36C182.859 121.76 182.979 122.073 183.219 122.3C183.472 122.527 183.799 122.707 184.199 122.84C184.612 122.96 185.059 123.06 185.539 123.14C186.032 123.22 186.519 123.32 186.999 123.44C187.492 123.547 187.939 123.7 188.339 123.9C188.752 124.087 189.079 124.36 189.319 124.72C189.572 125.067 189.699 125.527 189.699 126.1C189.699 126.713 189.525 127.247 189.179 127.7C188.845 128.14 188.352 128.487 187.699 128.74C187.059 128.98 186.279 129.1 185.359 129.1ZM198.884 129V126.68L198.824 126.3V122.42C198.824 121.527 198.571 120.84 198.064 120.36C197.571 119.88 196.831 119.64 195.844 119.64C195.164 119.64 194.518 119.753 193.904 119.98C193.291 120.207 192.771 120.507 192.344 120.88L191.704 119.82C192.238 119.367 192.878 119.02 193.624 118.78C194.371 118.527 195.158 118.4 195.984 118.4C197.344 118.4 198.391 118.74 199.124 119.42C199.871 120.087 200.244 121.107 200.244 122.48V129H198.884ZM195.264 129.1C194.478 129.1 193.791 128.973 193.204 128.72C192.631 128.453 192.191 128.093 191.884 127.64C191.578 127.173 191.424 126.64 191.424 126.04C191.424 125.493 191.551 125 191.804 124.56C192.071 124.107 192.498 123.747 193.084 123.48C193.684 123.2 194.484 123.06 195.484 123.06H199.104V124.12H195.524C194.511 124.12 193.804 124.3 193.404 124.66C193.018 125.02 192.824 125.467 192.824 126C192.824 126.6 193.058 127.08 193.524 127.44C193.991 127.8 194.644 127.98 195.484 127.98C196.284 127.98 196.971 127.8 197.544 127.44C198.131 127.067 198.558 126.533 198.824 125.84L199.144 126.82C198.878 127.513 198.411 128.067 197.744 128.48C197.091 128.893 196.264 129.1 195.264 129.1ZM207.421 129.1C206.434 129.1 205.674 128.833 205.141 128.3C204.608 127.767 204.341 127.013 204.341 126.04V116.18H205.761V125.96C205.761 126.573 205.914 127.047 206.221 127.38C206.541 127.713 206.994 127.88 207.581 127.88C208.208 127.88 208.728 127.7 209.141 127.34L209.641 128.36C209.361 128.613 209.021 128.8 208.621 128.92C208.234 129.04 207.834 129.1 207.421 129.1ZM202.461 119.68V118.5H208.961V119.68H202.461ZM212.226 129V118.5H213.646V129H212.226ZM212.946 116.18C212.653 116.18 212.406 116.08 212.206 115.88C212.006 115.68 211.906 115.44 211.906 115.16C211.906 114.88 212.006 114.647 212.206 114.46C212.406 114.26 212.653 114.16 212.946 114.16C213.239 114.16 213.486 114.253 213.686 114.44C213.886 114.627 213.986 114.86 213.986 115.14C213.986 115.433 213.886 115.68 213.686 115.88C213.499 116.08 213.253 116.18 212.946 116.18ZM221.877 129.1C220.864 129.1 219.951 128.873 219.137 128.42C218.337 127.953 217.704 127.32 217.237 126.52C216.771 125.707 216.537 124.78 216.537 123.74C216.537 122.687 216.771 121.76 217.237 120.96C217.704 120.16 218.337 119.533 219.137 119.08C219.937 118.627 220.851 118.4 221.877 118.4C222.917 118.4 223.837 118.627 224.637 119.08C225.451 119.533 226.084 120.16 226.537 120.96C227.004 121.76 227.237 122.687 227.237 123.74C227.237 124.78 227.004 125.707 226.537 126.52C226.084 127.32 225.451 127.953 224.637 128.42C223.824 128.873 222.904 129.1 221.877 129.1ZM221.877 127.84C222.637 127.84 223.311 127.673 223.897 127.34C224.484 126.993 224.944 126.513 225.277 125.9C225.624 125.273 225.797 124.553 225.797 123.74C225.797 122.913 225.624 122.193 225.277 121.58C224.944 120.967 224.484 120.493 223.897 120.16C223.311 119.813 222.644 119.64 221.897 119.64C221.151 119.64 220.484 119.813 219.897 120.16C219.311 120.493 218.844 120.967 218.497 121.58C218.151 122.193 217.977 122.913 217.977 123.74C217.977 124.553 218.151 125.273 218.497 125.9C218.844 126.513 219.311 126.993 219.897 127.34C220.484 127.673 221.144 127.84 221.877 127.84ZM235.496 118.4C236.35 118.4 237.096 118.567 237.736 118.9C238.39 119.22 238.896 119.713 239.256 120.38C239.63 121.047 239.816 121.887 239.816 122.9V129H238.396V123.04C238.396 121.933 238.116 121.1 237.556 120.54C237.01 119.967 236.236 119.68 235.236 119.68C234.49 119.68 233.836 119.833 233.276 120.14C232.73 120.433 232.303 120.867 231.996 121.44C231.703 122 231.556 122.68 231.556 123.48V129H230.136V118.5H231.496V121.38L231.276 120.84C231.61 120.08 232.143 119.487 232.876 119.06C233.61 118.62 234.483 118.4 235.496 118.4Z" fill="#171846"/>
<path d="M87 0H158.07V71.07H87V0Z" fill="white" fill-opacity="0.01"/>
<path d="M146.225 17.7675V35.535H98.8447" stroke="black" stroke-width="6.06142" stroke-linecap="round" stroke-linejoin="round"/>
<path d="M122.534 17.7675V35.535V53.3025" stroke="black" stroke-width="6.06142" stroke-linecap="round" stroke-linejoin="round"/>
<path d="M98.8447 17.7675V35.535V53.3025" stroke="black" stroke-width="6.06142" stroke-linecap="round" stroke-linejoin="round"/>
<path d="M152.147 11.845C152.147 15.1158 149.495 17.7675 146.224 17.7675C142.953 17.7675 140.302 15.1158 140.302 11.845C140.302 8.57408 142.953 5.92249 146.224 5.92249C149.495 5.92249 152.147 8.57408 152.147 11.845Z" fill="#2F88FF" stroke="black" stroke-width="6.06142" stroke-linecap="round" stroke-linejoin="round"/>
<path d="M128.456 11.845C128.456 15.1158 125.805 17.7675 122.534 17.7675C119.263 17.7675 116.611 15.1158 116.611 11.845C116.611 8.57408 119.263 5.92249 122.534 5.92249C125.805 5.92249 128.456 8.57408 128.456 11.845Z" fill="#2F88FF" stroke="black" stroke-width="6.06142" stroke-linecap="round" stroke-linejoin="round"/>
<path d="M104.767 11.845C104.767 15.1158 102.115 17.7675 98.8444 17.7675C95.5735 17.7675 92.9219 15.1158 92.9219 11.845C92.9219 8.57408 95.5735 5.92249 98.8444 5.92249C102.115 5.92249 104.767 8.57408 104.767 11.845Z" fill="#2F88FF" stroke="black" stroke-width="6.06142" stroke-linecap="round" stroke-linejoin="round"/>
<path d="M128.456 59.225C128.456 62.4958 125.805 65.1475 122.534 65.1475C119.263 65.1475 116.611 62.4958 116.611 59.225C116.611 55.9541 119.263 53.3025 122.534 53.3025C125.805 53.3025 128.456 55.9541 128.456 59.225Z" fill="#2F88FF" stroke="black" stroke-width="6.06142" stroke-linecap="round" stroke-linejoin="round"/>
<path d="M104.767 59.225C104.767 62.4958 102.115 65.1475 98.8444 65.1475C95.5735 65.1475 92.9219 62.4958 92.9219 59.225C92.9219 55.9541 95.5735 53.3025 98.8444 53.3025C102.115 53.3025 104.767 55.9541 104.767 59.225Z" fill="#2F88FF" stroke="black" stroke-width="6.06142" stroke-linecap="round" stroke-linejoin="round"/>
<path d="M146.224 65.1475C149.495 65.1475 152.147 62.4959 152.147 59.225C152.147 55.9541 149.495 53.3025 146.224 53.3025C142.953 53.3025 140.302 55.9541 140.302 59.225C140.302 62.4959 142.953 65.1475 146.224 65.1475Z" fill="#2F88FF" stroke="black" stroke-width="6.06142" stroke-linecap="round" stroke-linejoin="round"/>
</svg>
