<svg width="232" height="160" viewBox="0 0 232 160" fill="none" xmlns="http://www.w3.org/2000/svg">
<path d="M17.8067 150.12C16.0201 150.12 14.6134 149.607 13.5867 148.58C12.5601 147.553 12.0467 146.033 12.0467 144.02V136H13.5267V143.96C13.5267 145.613 13.9001 146.833 14.6467 147.62C15.3934 148.407 16.4467 148.8 17.8067 148.8C19.1801 148.8 20.2401 148.407 20.9867 147.62C21.7334 146.833 22.1067 145.613 22.1067 143.96V136H23.5467V144.02C23.5467 146.033 23.0334 147.553 22.0067 148.58C20.9934 149.607 19.5934 150.12 17.8067 150.12ZM33.0666 139.4C33.9199 139.4 34.6666 139.567 35.3066 139.9C35.9599 140.22 36.4666 140.713 36.8266 141.38C37.1999 142.047 37.3866 142.887 37.3866 143.9V150H35.9666V144.04C35.9666 142.933 35.6866 142.1 35.1266 141.54C34.5799 140.967 33.8066 140.68 32.8066 140.68C32.0599 140.68 31.4066 140.833 30.8466 141.14C30.2999 141.433 29.8732 141.867 29.5666 142.44C29.2732 143 29.1266 143.68 29.1266 144.48V150H27.7066V139.5H29.0666V142.38L28.8466 141.84C29.1799 141.08 29.7132 140.487 30.4466 140.06C31.1799 139.62 32.0532 139.4 33.0666 139.4ZM44.0422 150.1C43.1755 150.1 42.3555 149.98 41.5822 149.74C40.8089 149.487 40.2022 149.173 39.7622 148.8L40.4022 147.68C40.8289 148 41.3755 148.28 42.0422 148.52C42.7089 148.747 43.4089 148.86 44.1422 148.86C45.1422 148.86 45.8622 148.707 46.3022 148.4C46.7422 148.08 46.9622 147.66 46.9622 147.14C46.9622 146.753 46.8355 146.453 46.5822 146.24C46.3422 146.013 46.0222 145.847 45.6222 145.74C45.2222 145.62 44.7755 145.52 44.2822 145.44C43.7889 145.36 43.2955 145.267 42.8022 145.16C42.3222 145.053 41.8822 144.9 41.4822 144.7C41.0822 144.487 40.7555 144.2 40.5022 143.84C40.2622 143.48 40.1422 143 40.1422 142.4C40.1422 141.827 40.3022 141.313 40.6222 140.86C40.9422 140.407 41.4089 140.053 42.0222 139.8C42.6489 139.533 43.4089 139.4 44.3022 139.4C44.9822 139.4 45.6622 139.493 46.3422 139.68C47.0222 139.853 47.5822 140.087 48.0222 140.38L47.4022 141.52C46.9355 141.2 46.4355 140.973 45.9022 140.84C45.3689 140.693 44.8355 140.62 44.3022 140.62C43.3555 140.62 42.6555 140.787 42.2022 141.12C41.7622 141.44 41.5422 141.853 41.5422 142.36C41.5422 142.76 41.6622 143.073 41.9022 143.3C42.1555 143.527 42.4822 143.707 42.8822 143.84C43.2955 143.96 43.7422 144.06 44.2222 144.14C44.7155 144.22 45.2022 144.32 45.6822 144.44C46.1755 144.547 46.6222 144.7 47.0222 144.9C47.4355 145.087 47.7622 145.36 48.0022 145.72C48.2555 146.067 48.3822 146.527 48.3822 147.1C48.3822 147.713 48.2089 148.247 47.8622 148.7C47.5289 149.14 47.0355 149.487 46.3822 149.74C45.7422 149.98 44.9622 150.1 44.0422 150.1ZM55.3478 150.1C54.3078 150.1 53.3745 149.873 52.5478 149.42C51.7345 148.953 51.0945 148.32 50.6278 147.52C50.1611 146.707 49.9278 145.78 49.9278 144.74C49.9278 143.687 50.1611 142.76 50.6278 141.96C51.0945 141.16 51.7345 140.533 52.5478 140.08C53.3745 139.627 54.3078 139.4 55.3478 139.4C56.2411 139.4 57.0478 139.573 57.7678 139.92C58.4878 140.267 59.0545 140.787 59.4678 141.48L58.4078 142.2C58.0478 141.667 57.6011 141.273 57.0678 141.02C56.5345 140.767 55.9545 140.64 55.3278 140.64C54.5811 140.64 53.9078 140.813 53.3078 141.16C52.7078 141.493 52.2345 141.967 51.8878 142.58C51.5411 143.193 51.3678 143.913 51.3678 144.74C51.3678 145.567 51.5411 146.287 51.8878 146.9C52.2345 147.513 52.7078 147.993 53.3078 148.34C53.9078 148.673 54.5811 148.84 55.3278 148.84C55.9545 148.84 56.5345 148.713 57.0678 148.46C57.6011 148.207 58.0478 147.82 58.4078 147.3L59.4678 148.02C59.0545 148.7 58.4878 149.22 57.7678 149.58C57.0478 149.927 56.2411 150.1 55.3478 150.1ZM67.4611 139.4C68.3144 139.4 69.0611 139.567 69.7011 139.9C70.3544 140.22 70.8611 140.713 71.2211 141.38C71.5944 142.047 71.7811 142.887 71.7811 143.9V150H70.3611V144.04C70.3611 142.933 70.0811 142.1 69.5211 141.54C68.9744 140.967 68.2011 140.68 67.2011 140.68C66.4544 140.68 65.8011 140.833 65.2411 141.14C64.6944 141.433 64.2678 141.867 63.9611 142.44C63.6678 143 63.5211 143.68 63.5211 144.48V150H62.1011V135.16H63.5211V142.38L63.2411 141.84C63.5744 141.08 64.1078 140.487 64.8411 140.06C65.5744 139.62 66.4478 139.4 67.4611 139.4ZM80.0767 150.1C78.9834 150.1 78.0234 149.873 77.1967 149.42C76.3701 148.953 75.7234 148.32 75.2567 147.52C74.7901 146.707 74.5567 145.78 74.5567 144.74C74.5567 143.7 74.7767 142.78 75.2167 141.98C75.6701 141.18 76.2834 140.553 77.0567 140.1C77.8434 139.633 78.7234 139.4 79.6967 139.4C80.6834 139.4 81.5567 139.627 82.3167 140.08C83.0901 140.52 83.6967 141.147 84.1367 141.96C84.5767 142.76 84.7967 143.687 84.7967 144.74C84.7967 144.807 84.7901 144.88 84.7767 144.96C84.7767 145.027 84.7767 145.1 84.7767 145.18H75.6367V144.12H84.0167L83.4567 144.54C83.4567 143.78 83.2901 143.107 82.9567 142.52C82.6367 141.92 82.1967 141.453 81.6367 141.12C81.0767 140.787 80.4301 140.62 79.6967 140.62C78.9767 140.62 78.3301 140.787 77.7567 141.12C77.1834 141.453 76.7367 141.92 76.4167 142.52C76.0967 143.12 75.9367 143.807 75.9367 144.58V144.8C75.9367 145.6 76.1101 146.307 76.4567 146.92C76.8167 147.52 77.3101 147.993 77.9367 148.34C78.5767 148.673 79.3034 148.84 80.1167 148.84C80.7567 148.84 81.3501 148.727 81.8967 148.5C82.4567 148.273 82.9367 147.927 83.3367 147.46L84.1367 148.38C83.6701 148.94 83.0834 149.367 82.3767 149.66C81.6834 149.953 80.9167 150.1 80.0767 150.1ZM91.867 150.1C90.867 150.1 89.967 149.873 89.167 149.42C88.3804 148.967 87.7604 148.34 87.307 147.54C86.8537 146.727 86.627 145.793 86.627 144.74C86.627 143.673 86.8537 142.74 87.307 141.94C87.7604 141.14 88.3804 140.52 89.167 140.08C89.967 139.627 90.867 139.4 91.867 139.4C92.787 139.4 93.607 139.607 94.327 140.02C95.0604 140.433 95.6404 141.04 96.067 141.84C96.507 142.627 96.727 143.593 96.727 144.74C96.727 145.873 96.5137 146.84 96.087 147.64C95.6604 148.44 95.0804 149.053 94.347 149.48C93.627 149.893 92.8004 150.1 91.867 150.1ZM91.967 148.84C92.7137 148.84 93.3804 148.673 93.967 148.34C94.567 147.993 95.0337 147.513 95.367 146.9C95.7137 146.273 95.887 145.553 95.887 144.74C95.887 143.913 95.7137 143.193 95.367 142.58C95.0337 141.967 94.567 141.493 93.967 141.16C93.3804 140.813 92.7137 140.64 91.967 140.64C91.2337 140.64 90.5737 140.813 89.987 141.16C89.4004 141.493 88.9337 141.967 88.587 142.58C88.2404 143.193 88.067 143.913 88.067 144.74C88.067 145.553 88.2404 146.273 88.587 146.9C88.9337 147.513 89.4004 147.993 89.987 148.34C90.5737 148.673 91.2337 148.84 91.967 148.84ZM95.927 150V146.84L96.067 144.72L95.867 142.6V135.16H97.287V150H95.927ZM105.582 150.1C104.688 150.1 103.908 149.933 103.242 149.6C102.575 149.267 102.055 148.767 101.682 148.1C101.322 147.433 101.142 146.6 101.142 145.6V139.5H102.562V145.44C102.562 146.56 102.835 147.407 103.382 147.98C103.942 148.54 104.722 148.82 105.722 148.82C106.455 148.82 107.088 148.673 107.622 148.38C108.168 148.073 108.582 147.633 108.862 147.06C109.155 146.487 109.302 145.8 109.302 145V139.5H110.722V150H109.362V147.12L109.582 147.64C109.248 148.413 108.728 149.02 108.022 149.46C107.328 149.887 106.515 150.1 105.582 150.1ZM114.679 150V135.16H116.099V150H114.679ZM124.51 150.1C123.417 150.1 122.457 149.873 121.63 149.42C120.804 148.953 120.157 148.32 119.69 147.52C119.224 146.707 118.99 145.78 118.99 144.74C118.99 143.7 119.21 142.78 119.65 141.98C120.104 141.18 120.717 140.553 121.49 140.1C122.277 139.633 123.157 139.4 124.13 139.4C125.117 139.4 125.99 139.627 126.75 140.08C127.524 140.52 128.13 141.147 128.57 141.96C129.01 142.76 129.23 143.687 129.23 144.74C129.23 144.807 129.224 144.88 129.21 144.96C129.21 145.027 129.21 145.1 129.21 145.18H120.07V144.12H128.45L127.89 144.54C127.89 143.78 127.724 143.107 127.39 142.52C127.07 141.92 126.63 141.453 126.07 141.12C125.51 140.787 124.864 140.62 124.13 140.62C123.41 140.62 122.764 140.787 122.19 141.12C121.617 141.453 121.17 141.92 120.85 142.52C120.53 143.12 120.37 143.807 120.37 144.58V144.8C120.37 145.6 120.544 146.307 120.89 146.92C121.25 147.52 121.744 147.993 122.37 148.34C123.01 148.673 123.737 148.84 124.55 148.84C125.19 148.84 125.784 148.727 126.33 148.5C126.89 148.273 127.37 147.927 127.77 147.46L128.57 148.38C128.104 148.94 127.517 149.367 126.81 149.66C126.117 149.953 125.35 150.1 124.51 150.1ZM136.301 150.1C135.301 150.1 134.401 149.873 133.601 149.42C132.814 148.967 132.194 148.34 131.741 147.54C131.287 146.727 131.061 145.793 131.061 144.74C131.061 143.673 131.287 142.74 131.741 141.94C132.194 141.14 132.814 140.52 133.601 140.08C134.401 139.627 135.301 139.4 136.301 139.4C137.221 139.4 138.041 139.607 138.761 140.02C139.494 140.433 140.074 141.04 140.501 141.84C140.941 142.627 141.161 143.593 141.161 144.74C141.161 145.873 140.947 146.84 140.521 147.64C140.094 148.44 139.514 149.053 138.781 149.48C138.061 149.893 137.234 150.1 136.301 150.1ZM136.401 148.84C137.147 148.84 137.814 148.673 138.401 148.34C139.001 147.993 139.467 147.513 139.801 146.9C140.147 146.273 140.321 145.553 140.321 144.74C140.321 143.913 140.147 143.193 139.801 142.58C139.467 141.967 139.001 141.493 138.401 141.16C137.814 140.813 137.147 140.64 136.401 140.64C135.667 140.64 135.007 140.813 134.421 141.16C133.834 141.493 133.367 141.967 133.021 142.58C132.674 143.193 132.501 143.913 132.501 144.74C132.501 145.553 132.674 146.273 133.021 146.9C133.367 147.513 133.834 147.993 134.421 148.34C135.007 148.673 135.667 148.84 136.401 148.84ZM140.361 150V146.84L140.501 144.72L140.301 142.6V135.16H141.721V150H140.361ZM151.21 150V136H156.91C158.403 136 159.71 136.3 160.83 136.9C161.963 137.487 162.843 138.307 163.47 139.36C164.096 140.413 164.41 141.627 164.41 143C164.41 144.373 164.096 145.587 163.47 146.64C162.843 147.693 161.963 148.52 160.83 149.12C159.71 149.707 158.403 150 156.91 150H151.21ZM152.69 148.72H156.83C158.07 148.72 159.143 148.48 160.05 148C160.97 147.507 161.683 146.833 162.19 145.98C162.696 145.113 162.95 144.12 162.95 143C162.95 141.867 162.696 140.873 162.19 140.02C161.683 139.167 160.97 138.5 160.05 138.02C159.143 137.527 158.07 137.28 156.83 137.28H152.69V148.72ZM167.433 150V139.5H168.793V142.36L168.653 141.86C168.946 141.06 169.44 140.453 170.133 140.04C170.826 139.613 171.686 139.4 172.713 139.4V140.78C172.66 140.78 172.606 140.78 172.553 140.78C172.5 140.767 172.446 140.76 172.393 140.76C171.286 140.76 170.42 141.1 169.793 141.78C169.166 142.447 168.853 143.4 168.853 144.64V150H167.433ZM175.304 150V139.5H176.724V150H175.304ZM176.024 137.18C175.731 137.18 175.484 137.08 175.284 136.88C175.084 136.68 174.984 136.44 174.984 136.16C174.984 135.88 175.084 135.647 175.284 135.46C175.484 135.26 175.731 135.16 176.024 135.16C176.318 135.16 176.564 135.253 176.764 135.44C176.964 135.627 177.064 135.86 177.064 136.14C177.064 136.433 176.964 136.68 176.764 136.88C176.578 137.08 176.331 137.18 176.024 137.18ZM183.375 150L178.715 139.5H180.195L184.475 149.24H183.775L188.115 139.5H189.515L184.835 150H183.375ZM191.515 150V139.5H192.935V150H191.515ZM192.235 137.18C191.942 137.18 191.695 137.08 191.495 136.88C191.295 136.68 191.195 136.44 191.195 136.16C191.195 135.88 191.295 135.647 191.495 135.46C191.695 135.26 191.942 135.16 192.235 135.16C192.528 135.16 192.775 135.253 192.975 135.44C193.175 135.627 193.275 135.86 193.275 136.14C193.275 136.433 193.175 136.68 192.975 136.88C192.788 137.08 192.542 137.18 192.235 137.18ZM202.246 139.4C203.1 139.4 203.846 139.567 204.486 139.9C205.14 140.22 205.646 140.713 206.006 141.38C206.38 142.047 206.566 142.887 206.566 143.9V150H205.146V144.04C205.146 142.933 204.866 142.1 204.306 141.54C203.76 140.967 202.986 140.68 201.986 140.68C201.24 140.68 200.586 140.833 200.026 141.14C199.48 141.433 199.053 141.867 198.746 142.44C198.453 143 198.306 143.68 198.306 144.48V150H196.886V139.5H198.246V142.38L198.026 141.84C198.36 141.08 198.893 140.487 199.626 140.06C200.36 139.62 201.233 139.4 202.246 139.4ZM214.882 153.98C213.922 153.98 213.002 153.84 212.122 153.56C211.242 153.28 210.529 152.88 209.982 152.36L210.702 151.28C211.195 151.72 211.802 152.067 212.522 152.32C213.255 152.587 214.029 152.72 214.842 152.72C216.175 152.72 217.155 152.407 217.782 151.78C218.409 151.167 218.722 150.207 218.722 148.9V146.28L218.922 144.48L218.782 142.68V139.5H220.142V148.72C220.142 150.533 219.695 151.86 218.802 152.7C217.922 153.553 216.615 153.98 214.882 153.98ZM214.622 149.6C213.622 149.6 212.722 149.387 211.922 148.96C211.122 148.52 210.489 147.913 210.022 147.14C209.569 146.367 209.342 145.48 209.342 144.48C209.342 143.48 209.569 142.6 210.022 141.84C210.489 141.067 211.122 140.467 211.922 140.04C212.722 139.613 213.622 139.4 214.622 139.4C215.555 139.4 216.395 139.593 217.142 139.98C217.889 140.367 218.482 140.94 218.922 141.7C219.362 142.46 219.582 143.387 219.582 144.48C219.582 145.573 219.362 146.5 218.922 147.26C218.482 148.02 217.889 148.6 217.142 149C216.395 149.4 215.555 149.6 214.622 149.6ZM214.762 148.34C215.535 148.34 216.222 148.18 216.822 147.86C217.422 147.527 217.895 147.073 218.242 146.5C218.589 145.913 218.762 145.24 218.762 144.48C218.762 143.72 218.589 143.053 218.242 142.48C217.895 141.907 217.422 141.46 216.822 141.14C216.222 140.807 215.535 140.64 214.762 140.64C214.002 140.64 213.315 140.807 212.702 141.14C212.102 141.46 211.629 141.907 211.282 142.48C210.949 143.053 210.782 143.72 210.782 144.48C210.782 145.24 210.949 145.913 211.282 146.5C211.629 147.073 212.102 147.527 212.702 147.86C213.315 148.18 214.002 148.34 214.762 148.34Z" fill="#171846"/>
<path d="M80 0H151.07V71.07H80V0Z" fill="white" fill-opacity="0.01"/>
<path d="M87.4033 28.1319H143.667V59.225C143.667 60.8605 142.341 62.1862 140.706 62.1862H90.3646C88.7291 62.1862 87.4033 60.8605 87.4033 59.225V28.1319Z" fill="#EC9E39" stroke="black" stroke-width="6" stroke-linejoin="round"/>
<path d="M87.4033 13.3256C87.4033 11.6902 88.7291 10.3644 90.3646 10.3644H140.706C142.341 10.3644 143.667 11.6902 143.667 13.3256V28.1319H87.4033V13.3256Z" stroke="black" stroke-width="6" stroke-linejoin="round"/>
<path d="M103.69 5.9225V17.7675" stroke="black" stroke-width="6" stroke-linecap="round" stroke-linejoin="round"/>
<path d="M127.38 5.9225V17.7675" stroke="black" stroke-width="6" stroke-linecap="round" stroke-linejoin="round"/>
<path d="M121.458 50.3412H130.342" stroke="white" stroke-width="6" stroke-linecap="round" stroke-linejoin="round"/>
<path d="M100.729 50.3412H109.612" stroke="white" stroke-width="6" stroke-linecap="round" stroke-linejoin="round"/>
<path d="M121.458 38.4962H130.342" stroke="white" stroke-width="6" stroke-linecap="round" stroke-linejoin="round"/>
<path d="M100.729 38.4962H109.612" stroke="white" stroke-width="6" stroke-linecap="round" stroke-linejoin="round"/>
</svg>
