<svg width="16" height="15" viewBox="0 0 16 15" fill="none" xmlns="http://www.w3.org/2000/svg">
<path id="Vector" d="M12.9207 9.79562C12.3334 9.7961 11.7697 10.0233 11.3507 10.4284L5.44457 7.83853V7.58837V7.34558L11.3507 4.74838C11.7207 5.10523 12.2047 5.32507 12.7207 5.37054C13.2366 5.41602 13.7526 5.28433 14.1811 4.99785C14.6096 4.71137 14.9241 4.28776 15.0712 3.79897C15.2183 3.31017 15.189 2.78633 14.9882 2.31641C14.7874 1.84649 14.4274 1.45946 13.9696 1.22106C13.5117 0.982669 12.9841 0.907599 12.4763 1.00861C11.9686 1.10962 11.512 1.38047 11.1842 1.77518C10.8564 2.16988 10.6775 2.66409 10.6779 3.17388V3.42404L4.77172 6.01387C4.4565 5.70909 4.05681 5.50274 3.62283 5.42073C3.18886 5.33872 2.73994 5.3847 2.33242 5.5529C1.92491 5.7211 1.57696 6.00402 1.33227 6.36615C1.08757 6.72829 0.957031 7.15348 0.957031 7.58837C0.957031 8.02326 1.08757 8.44846 1.33227 8.81059C1.57696 9.17272 1.92491 9.45565 2.33242 9.62385C2.73994 9.79205 3.18886 9.83803 3.62283 9.75602C4.05681 9.67401 4.4565 9.46766 4.77172 9.16288L10.6779 11.7601V12.0029C10.6779 12.4394 10.8094 12.8662 11.0559 13.2291C11.3023 13.5921 11.6526 13.875 12.0624 14.0421C12.4723 14.2092 12.9232 14.2529 13.3583 14.1677C13.7934 14.0825 14.193 13.8723 14.5067 13.5636C14.8203 13.2549 15.0339 12.8616 15.1205 12.4335C15.207 12.0053 15.1626 11.5615 14.9928 11.1582C14.8231 10.7549 14.5356 10.4101 14.1668 10.1676C13.798 9.92507 13.3643 9.79562 12.9207 9.79562Z" fill="#CDCDCD"/>
</svg>
